<svg width="20" height="21" viewBox="0 0 20 21" fill="none" xmlns="http://www.w3.org/2000/svg">
<path d="M17.9062 2.00395C15.6484 -0.165101 12.1602 0.160703 10 2.67341C7.83984 0.160703 4.35156 -0.169564 2.09375 2.00395C-0.843745 4.82908 -0.414058 9.43496 1.67969 11.8763L8.53125 19.8518C8.92187 20.307 9.44531 20.5614 10 20.5614C10.5586 20.5614 11.0781 20.3115 11.4687 19.8562L18.3203 11.8807C20.4101 9.43943 20.8476 4.83354 17.9062 2.00395ZM16.9844 10.3722L10.1328 18.3477C10.0391 18.4548 9.96094 18.4548 9.86719 18.3477L3.01563 10.3722C1.58985 8.71195 1.30078 5.56994 3.30078 3.64636C4.82031 2.18694 7.16406 2.40563 8.63281 4.11498L10 5.7083L11.3672 4.11498C12.8437 2.3967 15.1875 2.18694 16.6992 3.6419C18.6953 5.56548 18.3984 8.72534 16.9844 10.3722Z" fill="#F7F4EA"/>
</svg>
