<svg width="490" height="110" viewBox="0 0 490 110" fill="none" xmlns="http://www.w3.org/2000/svg">
<path d="M0.0577393 5.67999H17.7956V20.4727H0.0577393V5.67999ZM0.0577393 32.5164H17.7956V108.182H0.0577393V32.5164Z" fill="#0095DB"/>
<path d="M66.7115 109.622C55.7557 109.622 47.9737 106.567 43.3654 100.458C38.844 94.2618 36.5833 85.5345 36.5833 74.2764V36.4436C36.5833 24.8364 38.844 16.0218 43.3654 10C47.8868 3.97817 55.6688 0.967262 66.7115 0.967262C77.0585 0.967262 84.4058 3.58544 88.7533 8.82181C93.101 14.0582 95.2747 21.6073 95.2747 31.4691V40.3709H76.7542V31.2073C76.7542 27.4545 76.5803 24.5309 76.2325 22.4364C75.8847 20.2545 74.9717 18.5091 73.4936 17.2C72.1024 15.8036 69.8851 15.1055 66.8419 15.1055C63.7117 15.1055 61.364 15.8473 59.7989 17.3309C58.2338 18.7273 57.1904 20.6473 56.6687 23.0909C56.234 25.4473 56.0166 28.5455 56.0166 32.3855V78.3345C56.0166 84.3564 56.7991 88.72 58.3642 91.4255C59.9293 94.0436 62.7552 95.3527 66.8419 95.3527C69.7982 95.3527 71.9719 94.6545 73.3631 93.2582C74.8413 91.8618 75.7543 90.0291 76.1021 87.76C76.5368 85.4036 76.7542 82.3055 76.7542 78.4654V68.9091H95.2747V77.4182C95.2747 87.6291 93.1445 95.5709 88.8837 101.244C84.6232 106.829 77.2324 109.622 66.7115 109.622ZM118.234 109.36C115.017 109.36 112.148 108.487 109.626 106.742C107.191 104.996 105.279 102.771 103.887 100.065C102.583 97.2727 101.931 94.3927 101.931 91.4255C101.931 85.5782 103.279 80.7782 105.974 77.0255C108.757 73.1854 112.148 70.2182 116.147 68.1236C120.234 66.0291 125.625 63.7164 132.32 61.1855V54.64C132.32 51.1491 131.885 48.6182 131.016 47.0473C130.233 45.3891 128.668 44.56 126.32 44.56C122.321 44.56 120.234 47.3527 120.06 52.9382L119.799 57.52L102.974 56.8654C103.235 48.1382 105.365 41.7236 109.365 37.6218C113.452 33.4327 119.582 31.3382 127.755 31.3382C135.146 31.3382 140.624 33.3891 144.189 37.4909C147.754 41.5055 149.536 47.2218 149.536 54.64V89.5927C149.536 95.0036 149.971 101.2 150.84 108.182H134.929C134.059 103.469 133.45 99.8473 133.103 97.3164C132.059 100.72 130.277 103.6 127.755 105.956C125.321 108.225 122.147 109.36 118.234 109.36ZM124.755 96.1382C126.234 96.1382 127.625 95.6145 128.929 94.5673C130.32 93.52 131.451 92.3855 132.32 91.1636V69.9564C127.712 72.6618 124.277 75.28 122.016 77.8109C119.756 80.2545 118.625 83.3527 118.625 87.1055C118.625 89.8982 119.147 92.1236 120.19 93.7818C121.321 95.3527 122.842 96.1382 124.755 96.1382ZM175.641 109.36C169.555 109.36 164.99 107.222 161.946 102.945C158.99 98.5818 157.512 91.7309 157.512 82.3927V59.2218C157.512 50.6691 158.903 43.9055 161.686 38.9309C164.555 33.8691 169.163 31.3382 175.511 31.3382C180.38 31.3382 184.901 33.3455 189.075 37.36V2.14544H206.943V108.182H189.075V102.815C184.901 107.178 180.423 109.36 175.641 109.36ZM182.032 97.0545C184.293 97.0545 186.64 96.2255 189.075 94.5673V46C186.814 44.3418 184.467 43.5127 182.032 43.5127C177.51 43.5127 175.25 47.4836 175.25 55.4254V83.7018C175.25 87.9782 175.728 91.2945 176.684 93.6509C177.641 95.92 179.423 97.0545 182.032 97.0545ZM239.371 109.36C231.024 109.36 224.894 107.047 220.981 102.422C217.068 97.7091 215.112 90.7709 215.112 81.6073V59.0909C215.112 49.84 217.068 42.9018 220.981 38.2764C224.981 33.6509 231.111 31.3382 239.371 31.3382C247.892 31.3382 253.892 33.7382 257.37 38.5382C260.935 43.3382 262.717 50.5818 262.717 60.2691V71.1345H232.719V86.0582C232.719 89.7236 233.241 92.3855 234.284 94.0436C235.415 95.7018 237.154 96.5309 239.501 96.5309C241.762 96.5309 243.371 95.7455 244.327 94.1745C245.371 92.5164 245.892 90.0291 245.892 86.7127V80.2982H262.587V85.5345C262.587 93.3018 260.63 99.2364 256.718 103.338C252.805 107.353 247.023 109.36 239.371 109.36ZM245.892 62.3636V55.1636C245.892 51.2364 245.414 48.4436 244.458 46.7854C243.501 45.04 241.806 44.1673 239.371 44.1673C236.849 44.1673 235.11 45.0836 234.154 46.9164C233.198 48.7491 232.719 52.1527 232.719 57.1273V62.3636H245.892ZM231.024 0.0509033H246.936L258.935 24.1382H245.762L238.98 8.42909L232.328 24.1382H219.286L231.024 0.0509033ZM270.841 32.5164H287.927V39.1927C292.97 33.8691 298.883 31.2073 305.665 31.2073C308.708 31.2073 311.317 31.9927 313.49 33.5636C315.664 35.0473 317.273 37.3164 318.316 40.3709C323.533 34.2618 329.881 31.2073 337.358 31.2073C341.532 31.2073 344.879 32.7345 347.401 35.7891C350.01 38.8436 351.314 43.2509 351.314 49.0109V108.182H334.359V50.7127C334.359 47.92 333.88 45.9564 332.924 44.8218C332.054 43.6873 330.707 43.12 328.881 43.12C327.489 43.12 325.924 43.5127 324.185 44.2982C322.533 45.0836 321.012 46.1745 319.62 47.5709V49.0109V108.182H302.796V50.7127C302.796 47.92 302.317 45.9564 301.361 44.8218C300.404 43.6873 299.013 43.12 297.187 43.12C295.796 43.12 294.275 43.5127 292.622 44.2982C290.97 45.0836 289.405 46.1745 287.927 47.5709V108.182H270.841V32.5164ZM361.066 5.67999H378.804V20.4727H361.066V5.67999ZM361.066 32.5164H378.804V108.182H361.066V32.5164ZM411.677 109.36C403.243 109.36 397.113 107.004 393.287 102.291C389.461 97.4909 387.548 90.64 387.548 81.7382V58.96C387.548 49.9709 389.461 43.12 393.287 38.4073C397.113 33.6945 403.243 31.3382 411.677 31.3382C419.676 31.3382 425.502 33.2582 429.154 37.0982C432.893 40.9382 434.762 46.7854 434.762 54.64V60.9236H418.068V54.2473C418.068 50.32 417.59 47.6145 416.633 46.1309C415.764 44.6473 414.155 43.9055 411.807 43.9055C409.286 43.9055 407.547 44.8218 406.59 46.6545C405.721 48.4873 405.286 51.8473 405.286 56.7345V84.4873C405.286 89.2 405.764 92.4291 406.721 94.1745C407.764 95.92 409.46 96.7927 411.807 96.7927C414.242 96.7927 415.894 96.0073 416.764 94.4364C417.633 92.7782 418.068 90.16 418.068 86.5818V78.4654H434.762V85.6655C434.762 93.4327 432.893 99.3236 429.154 103.338C425.415 107.353 419.59 109.36 411.677 109.36ZM465.465 109.36C457.378 109.36 451.335 107.135 447.336 102.684C443.336 98.1455 441.336 91.6 441.336 83.0473V57.6509C441.336 49.0982 443.336 42.5964 447.336 38.1455C451.335 33.6073 457.378 31.3382 465.465 31.3382C473.551 31.3382 479.594 33.6073 483.594 38.1455C487.681 42.5964 489.724 49.0982 489.724 57.6509V83.0473C489.724 91.6 487.681 98.1455 483.594 102.684C479.594 107.135 473.551 109.36 465.465 109.36ZM465.595 97.0545C468.291 97.0545 470.073 96.0073 470.943 93.9127C471.812 91.7309 472.247 88.5455 472.247 84.3564V56.4727C472.247 52.2836 471.812 49.0982 470.943 46.9164C470.073 44.7345 468.291 43.6436 465.595 43.6436C462.813 43.6436 460.987 44.7345 460.117 46.9164C459.248 49.0982 458.813 52.2836 458.813 56.4727V84.3564C458.813 88.5455 459.248 91.7309 460.117 93.9127C460.987 96.0073 462.813 97.0545 465.595 97.0545Z" fill="#164194"/>
</svg>
