<svg width="1170" height="1024" viewBox="0 0 1170 1024" fill="none" xmlns="http://www.w3.org/2000/svg">
<path fill-rule="evenodd" clip-rule="evenodd" d="M994.976 1828.39C1014.81 1825.94 1029.16 1812.75 1027.5 1792.84L991.883 1362.53C989.318 1331.85 961.743 1309.47 931.187 1313.25C900.626 1317.03 879.345 1345.46 884.34 1375.84L958.153 1801.98C961.394 1821.69 975.143 1830.85 994.976 1828.39Z" fill="#FFC999"/>
<path fill-rule="evenodd" clip-rule="evenodd" d="M752.039 1822.31C732.058 1822.77 715.274 1807.39 714.01 1787.45L686.982 1360.99C685.032 1330.27 709.038 1304.1 739.819 1303.37C770.608 1302.64 795.816 1327.66 795.314 1358.44L788.383 1785.7C788.06 1805.68 772.02 1821.83 752.039 1822.31Z" fill="#FFC999"/>
<path fill-rule="evenodd" clip-rule="evenodd" d="M730.443 905.038C694.171 905.89 665.713 936.427 667.43 972.66L685.877 1362.19C687.298 1392.19 712.412 1415.57 742.448 1414.87C772.485 1414.16 796.469 1389.62 796.473 1359.59L796.572 969.621C796.581 933.348 766.715 904.187 730.443 905.038Z" fill="#FFC999"/>
<path fill-rule="evenodd" clip-rule="evenodd" d="M882.218 917.819C918.225 913.365 950.844 939.416 954.444 975.51L993.15 1363.55C996.131 1393.44 974.707 1420.24 944.89 1423.93C915.074 1427.62 887.759 1406.84 883.356 1377.14L826.243 991.375C820.93 955.491 846.21 922.279 882.218 917.819Z" fill="#FFC999"/>
<path fill-rule="evenodd" clip-rule="evenodd" d="M630.667 301.771C630.667 301.771 583.806 287.139 563.014 335.809C513.822 345.274 518.385 397.999 518.385 397.999C518.385 397.999 488.663 434.088 531.781 461.905C528.961 503.306 576.535 503.306 576.535 503.306C576.535 503.306 582.618 536.612 619.948 529.267C653.253 564.922 725.878 570.453 757.115 538.369C801.555 584.099 896.726 552.177 891.211 516.038C950.719 521.895 989.295 463.971 963.254 405.366C996.5 367.623 970.229 338.005 970.229 338.005C970.229 338.005 994.012 242.897 929.299 219.23C903.289 161.809 822.397 191.674 822.397 191.674C822.397 191.674 774.864 173.609 750.409 213.449C694.115 213.109 691.86 243.713 683.58 268.384C633.967 263.306 630.667 301.771 630.667 301.771Z" fill="#253368"/>
<path fill-rule="evenodd" clip-rule="evenodd" d="M790.648 279.059C828.086 291.98 844.458 264.709 844.458 264.709C844.458 264.709 866.922 226.213 866.958 252.063C866.981 265.798 890.535 251.341 897.77 267.138C902.639 277.769 884.639 287.583 901.357 316.529C911.044 333.295 861.574 337.525 886.549 369.568C886.549 369.568 860.332 399.617 894.439 416.239L891.974 455.99C890.539 479.124 869.455 495.974 846.561 492.277C824.737 488.755 810.136 467.902 814.287 446.193L823.379 398.698C767.718 389.798 777.24 312.886 790.648 279.059Z" fill="#FFC999"/>
<path fill-rule="evenodd" clip-rule="evenodd" d="M469.309 459.089L441.066 359.312C441.066 359.312 394.81 278.353 378.106 283.332C362.591 290.121 397.661 313.295 404.614 336.169C389.847 335.112 396.554 357.071 396.554 357.071C396.554 357.071 384.8 356.645 387.96 374.536C377.044 380.993 385.795 401.528 385.795 401.528C385.795 401.528 407.726 455.615 432.024 491.692C432.024 491.692 472.335 522.812 469.309 459.089Z" fill="#FFC999"/>
<path fill-rule="evenodd" clip-rule="evenodd" d="M463.033 425.376C463.033 425.376 458.819 391.156 455.668 373.727C452.516 356.294 459.882 324.811 447.164 333.151C438.614 338.762 440.103 357.49 440.412 371.302C440.717 385.11 418.405 417.843 435.033 440.502C446.267 455.815 463.979 457.823 463.033 425.376Z" fill="#FFC999"/>
<path fill-rule="evenodd" clip-rule="evenodd" d="M437.103 452.297C448.683 444.602 464.27 447.376 472.483 458.593L631.047 675.105C644.963 695.482 639.534 723.299 618.975 736.954C598.236 750.726 570.222 744.717 556.966 723.649L428.617 486.316C422.219 474.489 425.9 459.74 437.103 452.297Z" fill="#FFC999"/>
<path d="M855.148 331.124C854.338 330.005 852.774 329.755 851.655 330.565L851.339 330.778C851.129 330.914 850.842 331.092 850.482 331.301C849.451 331.902 848.249 332.507 846.896 333.073C840.62 335.701 833.591 336.569 826.192 334.639C824.855 334.29 823.488 335.091 823.14 336.427C822.791 337.763 823.592 339.129 824.929 339.478C833.49 341.711 841.61 340.708 848.829 337.686C851.518 336.56 853.478 335.419 854.589 334.616C855.708 333.806 855.958 332.243 855.148 331.124Z" fill="#F5222D"/>
<path d="M856.844 291.541C855.531 291.332 854.297 292.226 854.087 293.538C852.629 302.669 858.307 311.246 866.898 312.625C875.486 313.993 883.56 307.612 885.018 298.483C885.228 297.17 884.333 295.936 883.02 295.727C881.707 295.517 880.473 296.411 880.263 297.724C879.211 304.313 873.525 308.807 867.659 307.872C861.788 306.93 857.789 300.889 858.842 294.297C859.051 292.984 858.157 291.751 856.844 291.541Z" fill="#253368"/>
<path d="M796.607 283.582C795.361 283.382 794.19 284.23 793.99 285.475C792.544 294.497 797.529 302.956 805.385 304.211C813.239 305.467 820.613 298.988 822.059 289.967C822.259 288.721 821.411 287.55 820.165 287.351C818.92 287.151 817.748 287.999 817.549 289.244C816.475 295.945 811.26 300.526 806.106 299.702C800.952 298.878 797.427 292.897 798.501 286.198C798.701 284.952 797.853 283.781 796.607 283.582Z" fill="#253368"/>
<path d="M881.933 267.305C874.03 264.243 865.689 264.093 857.934 265.656L856.687 265.924C855.529 266.19 854.645 266.443 854.078 266.636C852.819 267.062 852.144 268.429 852.571 269.688C852.998 270.946 854.365 271.621 855.624 271.194L856.154 271.028C856.784 270.845 857.71 270.611 858.886 270.374C865.818 268.977 873.272 269.111 880.194 271.793C883.419 273.042 886.403 274.817 889.106 277.173C890.109 278.047 891.629 277.942 892.503 276.941C893.377 275.939 893.273 274.419 892.27 273.545C889.137 270.815 885.67 268.752 881.933 267.305Z" fill="#253368"/>
<path fill-rule="evenodd" clip-rule="evenodd" d="M566.9 733.182C546.449 718.931 541.432 690.805 555.693 670.36L694.622 471.16C708.882 450.72 737.013 445.701 757.465 459.952C777.912 474.203 782.928 502.329 768.672 522.774L629.739 721.974C615.483 742.418 587.352 747.433 566.9 733.182Z" fill="#FFC999"/>
<path d="M770.558 522.35C769.984 521.95 769.218 522.031 768.739 522.507L768.574 522.704L710.505 605.962L638.183 554.389C637.613 553.982 636.846 554.055 636.362 554.526L636.194 554.721C635.788 555.291 635.86 556.057 636.332 556.541L636.527 556.709L710.022 609.12C710.596 609.53 711.369 609.453 711.852 608.974L712.019 608.775L770.912 524.334C771.363 523.689 771.204 522.8 770.558 522.35Z" fill="#4E5C93"/>
<path fill-rule="evenodd" clip-rule="evenodd" d="M709.777 607.218L768.675 522.772C782.873 502.417 777.829 474.148 757.463 459.955C737.101 445.762 708.822 450.803 694.624 471.163L636.287 554.802L709.777 607.218Z" fill="#80A1D4"/>
<path fill-rule="evenodd" clip-rule="evenodd" d="M729.585 533.115C719.942 554.12 702.077 590.277 699.858 614.164C696.253 652.893 721.475 681.709 721.475 681.709C721.475 681.709 721.73 670.322 724.178 770.659C839.714 790.92 913.379 769.377 913.379 769.377L911.129 742.779L929.89 679.908C929.89 679.908 941.291 656.492 964.715 604.26C980.997 567.946 979.867 522.929 977.662 498.859C976.716 488.547 981.616 467.017 971.381 465.408C936.606 459.941 912.474 456.997 912.474 456.997L908.242 443.996C907.677 440.061 904.306 437.139 900.329 437.139H810.92C807.271 437.139 804.088 439.608 803.182 443.144L796.915 456.997L749.794 458.677C741.541 460.295 734.404 486.144 733.543 494.507L729.585 533.115Z" fill="#80A1D4"/>
<path d="M913.607 460.548C912.879 459.971 911.853 460.023 911.188 460.628L910.98 460.851L830.255 562.602L798.926 467.687C798.635 466.805 797.75 466.286 796.861 466.426L796.565 466.498C795.683 466.789 795.163 467.674 795.304 468.563L795.375 468.858L827.788 567.066C828.223 568.385 829.863 568.759 830.831 567.855L831.028 567.642L913.91 463.173C914.551 462.364 914.416 461.189 913.607 460.548Z" fill="#DED9E2"/>
<path fill-rule="evenodd" clip-rule="evenodd" d="M806.425 574.381C797.943 588.677 801.767 606.608 814.96 614.432C828.154 622.253 845.727 617 854.205 602.704C862.687 588.404 858.867 570.473 845.669 562.653C832.475 554.833 814.906 560.085 806.425 574.381Z" fill="#DED9E2"/>
<path fill-rule="evenodd" clip-rule="evenodd" d="M803.377 574.311C794.895 588.607 798.719 606.537 811.913 614.358C825.107 622.182 842.68 616.93 851.162 602.629C859.639 588.333 855.82 570.403 842.622 562.582C829.433 554.762 811.859 560.015 803.377 574.311Z" fill="#DED9E2"/>
<path fill-rule="evenodd" clip-rule="evenodd" d="M808.762 576.801C802.177 587.902 805.145 601.822 815.393 607.894C825.636 613.966 839.278 609.893 845.859 598.792C852.445 587.691 849.482 573.772 839.233 567.699C828.99 561.622 815.348 565.701 808.762 576.801Z" fill="#75C9C8"/>
<path d="M977.621 497.431C976.834 497.456 976.214 498.111 976.236 498.898L976.361 504.565L976.38 505.647C976.573 516.937 976.593 528.866 976.329 540.03L976.244 543.244C975.889 555.359 975.194 565.096 974.103 571.645C972.864 579.072 968.106 591.688 960.732 607.946C959.444 610.787 958.087 613.713 956.67 616.711C952.765 624.971 948.58 633.409 944.395 641.569L942.281 645.668L938.881 652.156L938.724 652.48L908.423 742.792L908.356 743.384L910.935 769.595L908.692 770.034C908.053 770.156 907.373 770.281 906.655 770.411L905.547 770.609C900.126 771.567 893.844 772.526 886.775 773.421C838.52 779.531 783.901 779.561 727.634 769.526L725.341 769.108L725.148 761.816C725.005 757.041 724.789 750.481 724.51 742.393L723.402 711.127L722.438 684.815L722.26 684.179L721.57 682.895L720.466 680.778C720.154 680.17 719.83 679.531 719.495 678.863L718.985 677.84C716.52 672.86 714.055 667.458 711.755 661.83C708.484 653.828 705.826 646.039 703.995 638.724C702.226 631.651 701.283 625.216 701.283 619.572C701.283 605.446 703.157 594.605 707.362 583.422C709.467 577.823 712.171 572.042 716.066 564.664L718.004 561.054C720.622 556.254 725.678 547.137 728.605 541.867L730.834 537.853L731.009 537.22L731.91 513.356C731.94 512.569 731.326 511.908 730.539 511.878C729.84 511.852 729.239 512.333 729.094 512.993L729.061 513.248L728.175 536.77L716.494 557.874L714.345 561.824L712.767 564.814C709.232 571.597 706.703 577.075 704.693 582.419C700.365 593.931 698.432 605.112 698.432 619.572C698.432 625.474 699.407 632.133 701.229 639.415C703.096 646.875 705.797 654.789 709.116 662.908C711.111 667.79 713.227 672.501 715.362 676.919L716.43 679.104C716.954 680.162 717.455 681.156 717.93 682.081L719.603 685.258L721.934 750.548C722.277 760.816 722.477 767.562 722.499 769.908L722.501 770.3C722.501 770.987 722.991 771.576 723.667 771.701C781.468 782.421 837.622 782.517 887.134 776.249C893.538 775.438 899.304 774.575 904.378 773.706L906.043 773.416C907.193 773.213 908.254 773.018 909.226 772.834L912.785 772.122C913.402 771.986 913.845 771.465 913.898 770.856L913.897 770.591L911.225 743.405L941.333 653.606L942.875 650.691C944.099 648.361 945.464 645.735 946.933 642.87C951.131 634.683 955.328 626.219 959.247 617.929L961.336 613.468C961.677 612.734 962.013 612.005 962.345 611.28L963.329 609.123C970.805 592.64 975.622 579.867 976.916 572.114C978.129 564.828 978.855 553.834 979.179 540.098C979.407 530.491 979.424 520.327 979.303 510.487L979.192 503.472L979.086 498.818C979.064 498.031 978.408 497.411 977.621 497.431Z" fill="#164194"/>
<path fill-rule="evenodd" clip-rule="evenodd" d="M1062.7 766.78L1063.99 766.283C1086.87 757.401 1098.22 731.659 1089.34 708.785L1004.6 490.606C995.718 467.732 969.963 456.39 947.082 465.272L945.795 465.769C922.914 474.652 911.567 500.394 920.452 523.272L1005.18 741.442C1014.07 764.32 1039.82 775.663 1062.7 766.78Z" fill="#FFC999"/>
<path fill-rule="evenodd" clip-rule="evenodd" d="M911.57 790.65C952.163 793.827 1071.87 1047.1 1108.27 1138.8C1103.42 1157.27 1050.46 1193.01 1050.46 1193.01C1050.46 1193.01 1053.62 1207.71 1055.58 1216.54C1020.94 1245.02 953.943 1260.49 953.943 1260.49L953.795 1273.13C846.682 1322.43 703.248 1275.18 703.248 1275.18C703.248 1275.18 700.572 1272.44 702.491 1262.53C653.859 1261.97 549.723 1200.29 549.723 1200.29L564.526 1169.77L521.695 1125.95C521.695 1125.95 637.357 913.246 672.956 853.75C704.212 801.522 733.526 786.482 733.526 786.482C733.526 786.482 839.545 785.012 911.57 790.65Z" fill="#4E5C93"/>
<path fill-rule="evenodd" clip-rule="evenodd" d="M725.771 790.645L728.829 767.449C728.829 767.449 820.444 767.996 910.297 763.496C912.565 773.795 915.174 792.326 915.174 792.326C907.621 786.123 826.003 804.238 725.771 790.645Z" fill="#4E5C93"/>
<path d="M729.113 835.882C728.307 835.488 727.351 835.749 726.849 836.457L726.699 836.709L549.929 1197.71C549.554 1198.48 549.766 1199.4 550.438 1199.92L551.547 1200.77L553.356 1202.09C553.798 1202.41 554.267 1202.75 554.762 1203.1C558.293 1205.61 562.447 1208.39 567.198 1211.4C580.762 1219.96 596.403 1228.53 613.917 1236.52C641.142 1248.95 670.355 1258.82 701.213 1265.19C702.189 1265.4 703.144 1264.77 703.345 1263.79C703.547 1262.82 702.919 1261.86 701.943 1261.66C671.363 1255.35 642.404 1245.56 615.416 1233.24C598.056 1225.32 582.557 1216.83 569.126 1208.35C564.952 1205.71 561.248 1203.24 558.034 1200.99L556.142 1199.65L553.826 1197.96L729.94 838.295C730.334 837.49 730.074 836.535 729.365 836.032L729.113 835.882Z" fill="#164194"/>
<path d="M943.006 910.853C942.653 909.922 941.612 909.452 940.68 909.804C939.841 910.121 939.376 910.996 939.549 911.847L939.63 912.129L1055.15 1217.63L1053.26 1218.81L1050.96 1220.19C1048.96 1221.38 1046.75 1222.65 1044.35 1223.99C1034.72 1229.36 1023.92 1234.74 1012.23 1239.75C993.167 1247.92 973.607 1254.32 954.042 1258.28C953.065 1258.48 952.433 1259.43 952.631 1260.4C952.828 1261.38 953.78 1262.01 954.757 1261.81C974.584 1257.81 994.375 1251.33 1013.65 1243.07C1025.47 1238 1036.37 1232.57 1046.11 1227.14C1049.03 1225.51 1051.67 1223.98 1054 1222.58L1056.42 1221.1L1058.35 1219.88C1058.98 1219.46 1059.28 1218.71 1059.13 1218L1059.05 1217.73L943.006 910.853Z" fill="#164194"/>
<path d="M865.575 797.47L865.283 797.509C864.404 797.685 863.802 798.472 863.833 799.34L863.883 799.708L870.795 834.59C873.175 846.664 875.713 859.593 878.381 873.252L879.849 880.773C890.979 937.845 902.109 995.96 912.599 1052.16L915.008 1065.09C916.289 1071.99 917.554 1078.82 918.802 1085.58L925.479 1122.03C935.321 1176.16 943.67 1224.04 950.213 1264.21L951.752 1273.71L949.285 1274.53C946.673 1275.38 944.044 1276.19 941.4 1276.98L937.422 1278.13C873.18 1296.32 804.524 1295.28 739.685 1282.61C729.396 1280.6 720.116 1278.45 711.999 1276.3L709.653 1275.67C708.524 1275.36 707.459 1275.06 706.461 1274.78L703.533 1273.91L783.973 870.87C784.148 869.99 783.652 869.133 782.839 868.828L782.556 868.748C781.677 868.572 780.819 869.068 780.514 869.881L780.434 870.164L699.672 1274.81C699.493 1275.7 700.015 1276.59 700.887 1276.87L703.532 1277.68L705.466 1278.24C706.815 1278.63 708.283 1279.04 709.865 1279.46L711.074 1279.79C719.265 1281.96 728.623 1284.13 738.992 1286.16C804.34 1298.92 873.538 1299.96 938.405 1281.6C943.784 1280.08 949.101 1278.43 954.354 1276.64C955.187 1276.36 955.694 1275.52 955.555 1274.65L953.315 1260.82C946.839 1221.2 938.647 1174.28 929.03 1121.38L924.823 1098.35C922.782 1087.24 920.692 1075.93 918.556 1064.43C908.166 1008.54 897.087 950.497 885.959 893.273L876.318 843.961L867.406 798.925C867.23 798.046 866.443 797.444 865.575 797.47Z" fill="#164194"/>
<path d="M822.284 804.422C821.389 804.374 820.609 804.986 820.421 805.834L820.381 806.124L801.4 1142.66C801.344 1143.65 802.105 1144.5 803.1 1144.56C803.996 1144.61 804.775 1144 804.963 1143.15L805.003 1142.86L823.984 806.327C824.041 805.333 823.279 804.481 822.284 804.422Z" fill="#164194"/>
<path d="M774.049 795.816C773.192 795.55 772.288 795.954 771.9 796.731L771.79 797.003L700.524 1026.37C700.228 1027.32 700.76 1028.33 701.712 1028.63C702.568 1028.89 703.473 1028.49 703.861 1027.71L703.97 1027.44L775.237 798.074C775.532 797.122 775 796.111 774.049 795.816Z" fill="#164194"/>
<path d="M905.529 790.522C865.091 792.413 825.837 793.264 790.891 793.261L778.968 793.225C766.653 793.152 755.775 792.965 747.471 792.708L743.52 792.571C742.315 792.525 741.226 792.478 740.268 792.431L738.337 792.326C737.692 792.286 737.162 792.248 736.757 792.212L736.273 792.161L736.065 792.08C735.8 791.998 735.514 791.976 735.229 792.025L734.944 792.098L734.714 792.126C734.279 792.204 734.23 792.486 733.858 794.6L734.599 795.373C734.824 795.587 734.889 795.591 735.052 795.602C735.191 795.644 735.34 795.675 735.52 795.702L735.814 795.742C736.064 795.772 736.382 795.802 736.766 795.833L738.116 795.927C739.849 796.033 742.29 796.142 745.283 796.245L751.495 796.43C759.655 796.641 769.729 796.788 780.906 796.844L782.89 796.852C819.85 796.997 862.086 796.165 905.698 794.126C906.693 794.08 907.462 793.235 907.416 792.24C907.369 791.245 906.525 790.476 905.529 790.522Z" fill="#164194"/>
<path fill-rule="evenodd" clip-rule="evenodd" d="M954.285 610.389L917.013 514.421C908.029 491.287 919.614 465.012 942.755 456.031C965.896 447.05 992.18 458.626 1001.17 481.76L1038.08 576.818L954.285 610.389Z" fill="#80A1D4"/>
<path d="M811.265 466.747C810.478 466.747 809.839 467.385 809.839 468.172C809.839 468.872 810.344 469.453 811.009 469.574L811.265 469.597H887.736C888.524 469.597 889.162 468.959 889.162 468.172C889.162 467.472 888.658 466.89 887.992 466.77L887.736 466.747H811.265Z" fill="#164194"/>
<path d="M917.129 514.379C916.844 513.645 916.018 513.282 915.285 513.567C914.632 513.82 914.272 514.5 914.4 515.164L914.472 515.411L951.743 611.374C951.999 612.031 952.687 612.391 953.354 612.256L953.603 612.181L1037.4 578.61C1038.13 578.317 1038.49 577.487 1038.19 576.757C1037.93 576.107 1037.25 575.755 1036.59 575.89L1036.34 575.964L953.88 608.998L917.129 514.379Z" fill="#164194"/>
<path fill-rule="evenodd" clip-rule="evenodd" d="M827.918 773.61L753.988 572.071C752.769 568.75 749.559 566.577 746.022 566.68L562.734 571.91C557.04 572.071 553.23 577.825 555.296 583.131L631.871 779.118C633.099 782.273 636.139 784.348 639.523 784.352L820.176 784.671C825.905 784.68 829.89 778.983 827.918 773.61Z" fill="#4E5C93"/>
<path fill-rule="evenodd" clip-rule="evenodd" d="M818.157 771.525L745.515 573.499C744.04 569.475 740.157 566.849 735.872 566.97L550.315 572.267C546.334 572.379 543.666 576.399 545.119 580.11L622.747 778.812C624.11 782.303 627.472 784.602 631.22 784.611L808.783 784.92C815.719 784.933 820.547 778.036 818.157 771.525Z" fill="#253368"/>
<path fill-rule="evenodd" clip-rule="evenodd" d="M720.927 586.974C718.95 589.367 719.865 593.387 722.976 595.951C726.083 598.519 730.203 598.658 732.18 596.265C734.157 593.871 733.242 589.851 730.136 587.288C727.024 584.72 722.904 584.581 720.927 586.974Z" fill="#4E5C93"/>
<path fill-rule="evenodd" clip-rule="evenodd" d="M723.488 589.281C722.462 590.522 722.937 592.611 724.551 593.942C726.165 595.273 728.308 595.349 729.33 594.108C730.356 592.862 729.881 590.773 728.267 589.442C726.658 588.111 724.515 588.04 723.488 589.281Z" fill="#FFC999"/>
<path fill-rule="evenodd" clip-rule="evenodd" d="M758.039 770.59C760.007 784.348 772.457 794.127 786.296 792.787L1053.47 766.897C1077.94 763.706 1095.09 741.137 1091.59 716.718C1088.07 692.074 1064.92 675.183 1040.38 679.319L777.783 741.608C764.692 744.714 756.134 757.28 758.039 770.59Z" fill="#FFC999"/>
<path fill-rule="evenodd" clip-rule="evenodd" d="M757.995 803.042C757.995 803.042 819.3 796.83 827.186 769.542C834.328 744.831 810.527 734.739 810.527 734.739C810.527 734.739 788.457 720.962 759.927 716.208C741.13 713.079 704.777 710.749 701.8 720.398C697.914 732.977 739.211 733.219 739.287 742.801C739.364 752.629 730.828 753.211 711.856 760.92C699.994 765.737 692.601 762.748 683.326 768.749C665.197 780.477 686.522 815.352 757.995 803.042Z" fill="#FFC999"/>
<path d="M830.915 287.885C830.039 287.808 829.256 288.383 829.046 289.207L828.92 289.991C828.876 290.223 828.811 290.52 828.721 290.878C828.405 292.13 827.903 293.585 827.172 295.221C825.049 299.976 821.5 305.194 816.182 310.7C815.48 311.427 815.528 312.593 816.289 313.259L818.59 315.254C821.946 318.137 824.873 320.529 827.376 322.467L829.146 323.813L830.975 325.134C831.02 325.166 831.059 325.192 831.093 325.215C831.904 325.758 833.003 325.542 833.546 324.731C834.09 323.92 833.874 322.821 833.062 322.278L832.214 321.679L831.256 320.975C830.913 320.719 830.544 320.441 830.151 320.14L829.542 319.671C827.358 317.981 824.839 315.932 821.979 313.499L820.002 311.8L820.742 310.993C824.928 306.332 827.94 301.844 829.954 297.63L830.402 296.663C831.808 293.513 832.401 291.163 832.521 289.801C832.607 288.829 831.888 287.971 830.915 287.885Z" fill="#DD936F"/>
<path d="M860.53 394.931C860.204 394.01 859.194 393.528 858.273 393.853C846.537 398.001 834.863 399.162 823.594 397.517C822.628 397.376 821.73 398.045 821.589 399.011C821.448 399.978 822.117 400.875 823.083 401.016C834.923 402.744 847.177 401.525 859.452 397.187C860.373 396.862 860.855 395.851 860.53 394.931Z" fill="#DD936F"/>
<path d="M403.397 334.887C402.69 335.56 402.662 336.679 403.335 337.387L404.154 338.27L405.2 339.43C405.567 339.841 405.95 340.276 406.347 340.734C408.618 343.347 410.889 346.14 413.006 348.996C415.102 351.825 416.931 354.562 418.416 357.145C423.475 365.95 423.895 371.574 419.084 373.58C418.182 373.956 417.756 374.991 418.132 375.892C418.508 376.793 419.544 377.219 420.445 376.843C428.061 373.668 427.475 365.811 421.483 355.384C419.924 352.671 418.021 349.823 415.848 346.891C413.672 343.955 411.345 341.092 409.017 338.414L407.289 336.462L405.898 334.95C405.225 334.243 404.105 334.214 403.397 334.887Z" fill="#DD936F"/>
<path d="M396.549 356.658C395.955 357.433 396.102 358.542 396.877 359.137L397.738 359.815L398.84 360.708C399.226 361.024 399.63 361.36 400.048 361.712C402.44 363.727 404.831 365.887 407.057 368.101C409.428 370.459 411.468 372.738 413.077 374.879C417.367 380.585 418.037 384.346 414.97 386.226C413.691 387.009 412.253 387.183 410.594 386.797C408.17 386.232 405.431 384.506 402.629 381.973C401.358 380.824 400.161 379.588 399.078 378.353L398.252 377.384C398.026 377.111 397.851 376.891 397.733 376.735C397.141 375.958 396.031 375.808 395.254 376.4C394.477 376.992 394.327 378.101 394.919 378.878L395.511 379.619C395.762 379.924 396.066 380.282 396.418 380.683C397.586 382.016 398.876 383.348 400.256 384.595C403.463 387.495 406.664 389.512 409.792 390.241C412.312 390.827 414.7 390.539 416.818 389.24C422.343 385.854 421.285 379.91 415.905 372.755C414.183 370.464 412.034 368.062 409.552 365.594C407.25 363.305 404.788 361.082 402.328 359.008L401.084 357.974L399.029 356.33C398.254 355.736 397.144 355.883 396.549 356.658Z" fill="#DD936F"/>
<path d="M392.172 374.093C391.207 373.94 390.302 374.599 390.149 375.563C389.997 376.528 390.656 377.433 391.621 377.585C393.987 377.959 397.01 380.096 400.627 384.352C408.227 393.29 409.801 399.04 407.541 400.361C405.202 401.729 399.652 399.201 396.085 394.101C394.826 392.301 392.065 393.954 393.058 395.913C397.499 404.674 402.706 410.783 409.179 415.533L410.794 416.678C413.505 418.558 414.497 419.095 421.98 423.04L423.729 423.984C433.882 429.602 437.981 434.537 440.327 446.224C440.52 447.182 441.452 447.802 442.409 447.61C443.367 447.418 443.988 446.486 443.795 445.528C441.146 432.334 436.183 426.683 424.539 420.398L417.708 416.764C415.104 415.346 414.19 414.739 412.188 413.338C408.312 410.627 404.919 407.444 401.875 403.457L401.757 403.292L402.191 403.471C404.646 404.404 407.031 404.527 408.904 403.637L409.327 403.413C414.368 400.465 412.184 392.483 403.322 382.062C399.21 377.222 395.532 374.623 392.172 374.093Z" fill="#DD936F"/>
<path d="M440.173 352.276C439.297 352.203 438.518 352.782 438.312 353.608L438.265 353.892L436.121 379.782L435.457 380.956L434.965 381.87C433.95 383.793 432.937 385.933 431.99 388.239C429.242 394.938 427.602 401.658 427.637 407.995C427.664 412.942 428.728 417.454 430.982 421.402C431.467 422.25 432.547 422.545 433.395 422.061C434.243 421.577 434.538 420.497 434.054 419.649C432.122 416.265 431.198 412.346 431.174 407.976C431.142 402.173 432.677 395.884 435.263 389.581C435.984 387.825 436.746 386.169 437.515 384.641L438.093 383.521C438.668 382.432 439.11 381.663 439.354 381.267C439.452 381.109 439.523 380.938 439.567 380.759L439.611 380.486L441.79 354.184C441.87 353.21 441.147 352.356 440.173 352.276Z" fill="#DD936F"/>
<path d="M737.255 767.884C736.671 767.101 735.563 766.939 734.78 767.522L734.325 767.845C733.774 768.221 732.94 768.751 731.829 769.395C729.332 770.842 726.383 772.293 723.001 773.65C711.322 778.337 697.639 780.734 682.183 779.6C681.209 779.528 680.362 780.26 680.29 781.233C680.219 782.207 680.95 783.055 681.924 783.126C697.942 784.301 712.159 781.811 724.319 776.931C727.862 775.51 730.963 773.984 733.603 772.454C734.301 772.05 734.93 771.666 735.489 771.308L736.025 770.959C736.445 770.68 736.735 770.476 736.893 770.358C737.677 769.774 737.838 768.667 737.255 767.884Z" fill="#DD936F"/>
<path d="M746.321 783.279C745.907 782.394 744.854 782.013 743.969 782.427C743.088 782.839 742.196 783.235 741.295 783.616C727.718 789.343 713.527 791.09 701.576 790.592L700.207 790.525C699.418 790.48 698.876 790.436 698.606 790.408C697.634 790.307 696.765 791.012 696.664 791.984C696.563 792.955 697.268 793.824 698.24 793.925L699.245 794.008C699.471 794.023 699.725 794.039 700.007 794.055C712.726 794.777 727.994 793.065 742.67 786.873C743.613 786.476 744.546 786.061 745.469 785.629C746.353 785.215 746.735 784.163 746.321 783.279Z" fill="#DD936F"/>
<path d="M761.527 792.051C761.023 791.215 759.936 790.945 759.099 791.448L758.698 791.674C758.205 791.939 757.436 792.317 756.383 792.778C754.001 793.822 751.086 794.871 747.625 795.853C739.995 798.018 730.871 799.538 720.191 800.12C719.216 800.173 718.468 801.007 718.522 801.982C718.575 802.957 719.408 803.704 720.384 803.651C731.325 803.055 740.708 801.491 748.591 799.255C752.208 798.228 755.274 797.125 757.803 796.017C759.347 795.341 760.382 794.803 760.924 794.478C761.761 793.974 762.031 792.888 761.527 792.051Z" fill="#DD936F"/>
</svg>
