<svg width="45" height="44" viewBox="0 0 45 44" fill="none" xmlns="http://www.w3.org/2000/svg">
<path d="M40.1786 0.125H4.82143C2.15859 0.125 0 2.22363 0 4.8125V39.1875C0 41.7764 2.15859 43.875 4.82143 43.875H40.1786C42.8414 43.875 45 41.7764 45 39.1875V4.8125C45 2.22363 42.8414 0.125 40.1786 0.125ZM17.8912 22.5961C8.78193 16.1687 8.87474 16.1524 6.42857 14.3015V11.8438C6.42857 10.5493 7.50787 9.5 8.83929 9.5H36.1607C37.4921 9.5 38.5714 10.5493 38.5714 11.8438V14.3015C36.1234 16.1539 36.2176 16.169 27.1088 22.5962C26.0541 23.3438 23.9556 25.147 22.5 25.1249C21.0432 25.1462 18.9475 23.3449 17.8912 22.5961ZM38.5714 18.2671V32.1562C38.5714 33.4507 37.4921 34.5 36.1607 34.5H8.83929C7.50787 34.5 6.42857 33.4507 6.42857 32.1562V18.2671C7.8306 19.3212 9.77635 20.7315 16.0014 25.1239C17.4239 26.1338 19.8159 28.2631 22.4997 28.2499C25.2004 28.263 27.6262 26.0975 29.0006 25.1225C35.2241 20.7313 37.1694 19.3211 38.5714 18.2671Z" fill="#80A1D4"/>
</svg>
