<svg width="45" height="44" viewBox="0 0 45 44" fill="none" xmlns="http://www.w3.org/2000/svg">
<path d="M40.1786 0.125H4.82143C3.54271 0.125 2.31636 0.61886 1.41216 1.49794C0.50797 2.37701 0 3.5693 0 4.8125L0 39.1875C0 40.4307 0.50797 41.623 1.41216 42.5021C2.31636 43.3811 3.54271 43.875 4.82143 43.875H18.6077V29.001H12.2796V22H18.6077V16.6641C18.6077 10.5947 22.3242 7.24219 28.0165 7.24219C30.7426 7.24219 33.5933 7.71484 33.5933 7.71484V13.6719H30.4523C27.3576 13.6719 26.3923 15.5391 26.3923 17.4541V22H33.301L32.1961 29.001H26.3923V43.875H40.1786C41.4573 43.875 42.6836 43.3811 43.5878 42.5021C44.492 41.623 45 40.4307 45 39.1875V4.8125C45 3.5693 44.492 2.37701 43.5878 1.49794C42.6836 0.61886 41.4573 0.125 40.1786 0.125Z" fill="#80A1D4"/>
</svg>
