<svg width="38" height="41" viewBox="0 0 38 41" fill="none" xmlns="http://www.w3.org/2000/svg">
<g filter="url(#filter0_d)">
<path d="M31.8571 2.1875H6.13616C4.95759 2.1875 4 3.17871 4 4.39551V30.6045C4 31.8213 4.95759 32.8125 6.13616 32.8125H31.8571C33.0357 32.8125 34 31.8213 34 30.6045V4.39551C34 3.17871 33.0357 2.1875 31.8571 2.1875ZM13.067 28.4375H8.62054V13.8223H13.0737V28.4375H13.067ZM10.8437 11.8262C9.41741 11.8262 8.26562 10.6436 8.26562 9.19434C8.26562 7.74512 9.41741 6.5625 10.8437 6.5625C12.2634 6.5625 13.4219 7.74512 13.4219 9.19434C13.4219 10.6504 12.2701 11.8262 10.8437 11.8262ZM29.7344 28.4375H25.2879V21.3281C25.2879 19.6328 25.2545 17.4521 22.9777 17.4521C20.6607 17.4521 20.3058 19.2979 20.3058 21.2051V28.4375H15.8594V13.8223H20.125V15.8184H20.1853C20.7812 14.6699 22.2344 13.46 24.3973 13.46C28.8973 13.46 29.7344 16.4883 29.7344 20.4258V28.4375Z" fill="#164194"/>
</g>
<defs>
<filter id="filter0_d" x="0" y="0" width="38" height="43" filterUnits="userSpaceOnUse" color-interpolation-filters="sRGB">
<feFlood flood-opacity="0" result="BackgroundImageFix"/>
<feColorMatrix in="SourceAlpha" type="matrix" values="0 0 0 0 0 0 0 0 0 0 0 0 0 0 0 0 0 0 127 0"/>
<feOffset dy="4"/>
<feGaussianBlur stdDeviation="2"/>
<feColorMatrix type="matrix" values="0 0 0 0 0 0 0 0 0 0 0 0 0 0 0 0 0 0 0.25 0"/>
<feBlend mode="normal" in2="BackgroundImageFix" result="effect1_dropShadow"/>
<feBlend mode="normal" in="SourceGraphic" in2="effect1_dropShadow" result="shape"/>
</filter>
</defs>
</svg>
