<svg width="38" height="41" viewBox="0 0 38 41" fill="none" xmlns="http://www.w3.org/2000/svg">
<g filter="url(#filter0_d)">
<g clip-path="url(#clip0)">
<path d="M30.7857 2.1875H7.21429C6.3618 2.1875 5.54424 2.5332 4.94144 3.14856C4.33865 3.76391 4 4.59851 4 5.46875V29.5312C4 30.4015 4.33865 31.2361 4.94144 31.8514C5.54424 32.4668 6.3618 32.8125 7.21429 32.8125H16.4051V22.4007H12.1864V17.5H16.4051V13.7648C16.4051 9.51631 18.8828 7.16953 22.6777 7.16953C24.4951 7.16953 26.3955 7.50039 26.3955 7.50039V11.6703H24.3016C22.2384 11.6703 21.5949 12.9773 21.5949 14.3179V17.5H26.2007L25.4641 22.4007H21.5949V32.8125H30.7857C31.6382 32.8125 32.4558 32.4668 33.0586 31.8514C33.6614 31.2361 34 30.4015 34 29.5312V5.46875C34 4.59851 33.6614 3.76391 33.0586 3.14856C32.4558 2.5332 31.6382 2.1875 30.7857 2.1875Z" fill="#164194"/>
</g>
</g>
<defs>
<filter id="filter0_d" x="0" y="0" width="38" height="43" filterUnits="userSpaceOnUse" color-interpolation-filters="sRGB">
<feFlood flood-opacity="0" result="BackgroundImageFix"/>
<feColorMatrix in="SourceAlpha" type="matrix" values="0 0 0 0 0 0 0 0 0 0 0 0 0 0 0 0 0 0 127 0"/>
<feOffset dy="4"/>
<feGaussianBlur stdDeviation="2"/>
<feColorMatrix type="matrix" values="0 0 0 0 0 0 0 0 0 0 0 0 0 0 0 0 0 0 0.25 0"/>
<feBlend mode="normal" in2="BackgroundImageFix" result="effect1_dropShadow"/>
<feBlend mode="normal" in="SourceGraphic" in2="effect1_dropShadow" result="shape"/>
</filter>
<clipPath id="clip0">
<rect x="4" width="30" height="35" rx="10" fill="white"/>
</clipPath>
</defs>
</svg>
