<svg width="38" height="41" viewBox="0 0 38 41" fill="none" xmlns="http://www.w3.org/2000/svg">
<g filter="url(#filter0_d)">
<g clip-path="url(#clip0)">
<path d="M19 13.8537C18.2936 13.854 17.6032 14.0681 17.0159 14.4689C16.4287 14.8697 15.9711 15.4393 15.701 16.1056C15.4308 16.7719 15.3603 17.505 15.4983 18.2122C15.6362 18.9194 15.9765 19.569 16.4761 20.0788C16.9757 20.5886 17.6122 20.9357 18.305 21.0763C18.9978 21.2169 19.7159 21.1446 20.3685 20.8686C21.0211 20.5926 21.5789 20.1252 21.9713 19.5256C22.3638 18.926 22.5732 18.2211 22.5732 17.5C22.5725 16.5329 22.1958 15.6057 21.5258 14.922C20.8558 14.2383 19.9473 13.8541 19 13.8537ZM27.3511 11.051C27.1693 10.5806 26.8947 10.1533 26.5444 9.7957C26.1941 9.4381 25.7756 9.15779 25.3147 8.97217C23.9085 8.40547 20.5603 8.53262 19 8.53262C17.4397 8.53262 14.0949 8.40068 12.6846 8.97217C12.2238 9.15779 11.8052 9.4381 11.4549 9.7957C11.1046 10.1533 10.8301 10.5806 10.6482 11.051C10.0937 12.4865 10.2176 15.9079 10.2176 17.4993C10.2176 19.0907 10.0938 22.508 10.6509 23.9483C10.8327 24.4188 11.1073 24.846 11.4576 25.2036C11.8079 25.5612 12.2265 25.8415 12.6873 26.0271C14.0935 26.5938 17.4417 26.4667 19.0027 26.4667C20.5636 26.4667 23.9071 26.5986 25.3174 26.0271C25.7782 25.8415 26.1968 25.5612 26.5471 25.2036C26.8974 24.846 27.172 24.4188 27.3538 23.9483C27.9129 22.5128 27.7844 19.0914 27.7844 17.5C27.7844 15.9086 27.9129 12.492 27.3538 11.0517L27.3511 11.051ZM19 23.1055C17.914 23.1055 16.8523 22.7767 15.9493 22.1608C15.0463 21.5448 14.3425 20.6694 13.9269 19.6451C13.5113 18.6209 13.4026 17.4938 13.6144 16.4064C13.8263 15.3191 14.3493 14.3203 15.1172 13.5363C15.8852 12.7524 16.8636 12.2185 17.9287 12.0022C18.9939 11.786 20.098 11.897 21.1013 12.3212C22.1047 12.7455 22.9623 13.464 23.5657 14.3858C24.169 15.3076 24.4911 16.3913 24.4911 17.5C24.492 18.2364 24.3505 18.9657 24.0749 19.6462C23.7992 20.3267 23.3948 20.945 22.8847 21.4657C22.3747 21.9864 21.769 22.3992 21.1024 22.6806C20.4358 22.962 19.7213 23.1064 19 23.1055ZM24.7174 12.9678C24.4639 12.9679 24.216 12.8913 24.0052 12.7476C23.7943 12.6039 23.6299 12.3996 23.5328 12.1606C23.4357 11.9215 23.4102 11.6584 23.4596 11.4045C23.509 11.1507 23.631 10.9175 23.8102 10.7344C23.9894 10.5514 24.2178 10.4267 24.4664 10.3762C24.7151 10.3256 24.9728 10.3515 25.2071 10.4505C25.4413 10.5495 25.6415 10.7172 25.7824 10.9324C25.9233 11.1476 25.9984 11.4006 25.9984 11.6594C25.9991 11.8312 25.9666 12.0016 25.9027 12.1606C25.8388 12.3195 25.7447 12.4641 25.626 12.5859C25.5072 12.7077 25.366 12.8044 25.2106 12.8704C25.0551 12.9364 24.8884 12.9704 24.7201 12.9705L24.7174 12.9678ZM30.7857 2.1875H7.21429C6.3618 2.1875 5.54424 2.5332 4.94144 3.14856C4.33865 3.76391 4 4.59851 4 5.46875V29.5312C4 30.4015 4.33865 31.2361 4.94144 31.8514C5.54424 32.4668 6.3618 32.8125 7.21429 32.8125H30.7857C31.6382 32.8125 32.4558 32.4668 33.0586 31.8514C33.6614 31.2361 34 30.4015 34 29.5312V5.46875C34 4.59851 33.6614 3.76391 33.0586 3.14856C32.4558 2.5332 31.6382 2.1875 30.7857 2.1875ZM29.6393 22.0117C29.5529 23.7638 29.1612 25.3162 27.9083 26.5918C26.6554 27.8674 25.1359 28.2755 23.4217 28.3589C21.6531 28.4607 16.3509 28.4607 14.5824 28.3589C12.8661 28.2707 11.3507 27.8701 10.0958 26.5918C8.84085 25.3135 8.44643 23.7604 8.36473 22.0117C8.26496 20.2057 8.26496 14.7923 8.36473 12.9883C8.45112 11.2362 8.83817 9.68379 10.0958 8.4082C11.3533 7.13262 12.8728 6.7293 14.5824 6.6459C16.3509 6.54404 21.6531 6.54404 23.4217 6.6459C25.1379 6.73408 26.658 7.13467 27.9083 8.41299C29.1585 9.69131 29.5576 11.2444 29.6393 12.9965C29.7391 14.7957 29.7391 20.2043 29.6393 22.0117Z" fill="#164194"/>
</g>
</g>
<defs>
<filter id="filter0_d" x="0" y="0" width="38" height="43" filterUnits="userSpaceOnUse" color-interpolation-filters="sRGB">
<feFlood flood-opacity="0" result="BackgroundImageFix"/>
<feColorMatrix in="SourceAlpha" type="matrix" values="0 0 0 0 0 0 0 0 0 0 0 0 0 0 0 0 0 0 127 0"/>
<feOffset dy="4"/>
<feGaussianBlur stdDeviation="2"/>
<feColorMatrix type="matrix" values="0 0 0 0 0 0 0 0 0 0 0 0 0 0 0 0 0 0 0.25 0"/>
<feBlend mode="normal" in2="BackgroundImageFix" result="effect1_dropShadow"/>
<feBlend mode="normal" in="SourceGraphic" in2="effect1_dropShadow" result="shape"/>
</filter>
<clipPath id="clip0">
<rect x="4" width="30" height="35" rx="10" fill="white"/>
</clipPath>
</defs>
</svg>
