<svg width="93" height="80" viewBox="0 0 93 93" fill="none" xmlns="http://www.w3.org/2000/svg">
<g filter="url(#filter0_d)">
<rect x="4" width="85" height="85" rx="10" fill="#164194"/>
</g>
<path d="M47.7219 20.1875C46.7209 19.2366 45.1385 19.2771 44.1875 20.2781L28.6905 36.5905C27.7395 37.5915 27.7801 39.1739 28.7811 40.1248C29.7821 41.0758 31.3645 41.0352 32.3154 40.0342L46.0906 25.5344L60.5904 39.3095C61.5914 40.2605 63.1738 40.22 64.1248 39.219C65.0758 38.218 65.0352 36.6356 64.0342 35.6846L47.7219 20.1875ZM49.4992 60.9524L48.4992 21.936L43.5008 22.0641L44.5008 61.0805L49.4992 60.9524Z" fill="#F7F4EA"/>
<defs>
<filter id="filter0_d" x="0" y="0" width="93" height="93" filterUnits="userSpaceOnUse" color-interpolation-filters="sRGB">
<feFlood flood-opacity="0" result="BackgroundImageFix"/>
<feColorMatrix in="SourceAlpha" type="matrix" values="0 0 0 0 0 0 0 0 0 0 0 0 0 0 0 0 0 0 127 0"/>
<feOffset dy="4"/>
<feGaussianBlur stdDeviation="2"/>
<feColorMatrix type="matrix" values="0 0 0 0 0 0 0 0 0 0 0 0 0 0 0 0 0 0 0.25 0"/>
<feBlend mode="normal" in2="BackgroundImageFix" result="effect1_dropShadow"/>
<feBlend mode="normal" in="SourceGraphic" in2="effect1_dropShadow" result="shape"/>
</filter>
</defs>
</svg>
