<svg width="45" height="44" viewBox="0 0 45 44" fill="none" xmlns="http://www.w3.org/2000/svg">
<path d="M22.5 16.791C21.4404 16.7914 20.4047 17.0972 19.5239 17.6698C18.6431 18.2424 17.9567 19.0561 17.5515 20.008C17.1462 20.9598 17.0404 22.0071 17.2474 23.0174C17.4543 24.0277 17.9648 24.9557 18.7142 25.684C19.4636 26.4123 20.4182 26.9082 21.4575 27.109C22.4967 27.3099 23.5739 27.2066 24.5528 26.8123C25.5317 26.418 26.3684 25.7503 26.957 24.8938C27.5456 24.0372 27.8598 23.0302 27.8598 22C27.8588 20.6185 27.2937 19.2939 26.2887 18.3171C25.2837 17.3404 23.921 16.7915 22.5 16.791ZM35.0267 12.7871C34.7539 12.1151 34.342 11.5047 33.8166 10.9939C33.2911 10.483 32.6633 10.0826 31.9721 9.81738C29.8627 9.00781 24.8404 9.18945 22.5 9.18945C20.1596 9.18945 15.1423 9.00098 13.0269 9.81738C12.3357 10.0826 11.7079 10.483 11.1824 10.9939C10.657 11.5047 10.2451 12.1151 9.97232 12.7871C9.14062 14.8379 9.32645 19.7256 9.32645 21.999C9.32645 24.2725 9.14062 29.1543 9.97634 31.2119C10.2491 31.8839 10.661 32.4943 11.1864 33.0052C11.7119 33.516 12.3397 33.9165 13.0309 34.1816C15.1403 34.9912 20.1626 34.8096 22.504 34.8096C24.8454 34.8096 29.8607 34.998 31.9761 34.1816C32.6673 33.9165 33.2952 33.516 33.8206 33.0052C34.3461 32.4943 34.7579 31.8839 35.0307 31.2119C35.8694 29.1611 35.6766 24.2734 35.6766 22C35.6766 19.7266 35.8694 14.8457 35.0307 12.7881L35.0267 12.7871ZM22.5 30.0078C20.871 30.0078 19.2785 29.5382 17.924 28.6583C16.5695 27.7783 15.5138 26.5277 14.8904 25.0645C14.267 23.6012 14.1038 21.9911 14.4217 20.4378C14.7395 18.8844 15.5239 17.4575 16.6758 16.3376C17.8277 15.2177 19.2954 14.455 20.8931 14.1461C22.4909 13.8371 24.147 13.9957 25.652 14.6017C27.1571 15.2078 28.4434 16.2342 29.3485 17.5511C30.2535 18.868 30.7366 20.4162 30.7366 22C30.7379 23.052 30.5258 24.0938 30.1123 25.066C29.6989 26.0381 29.0922 26.9214 28.3271 27.6652C27.562 28.4091 26.6535 28.9989 25.6536 29.4009C24.6537 29.8028 23.582 30.0091 22.5 30.0078ZM31.0761 15.5254C30.6958 15.5256 30.324 15.4161 30.0077 15.2109C29.6914 15.0056 29.4449 14.7137 29.2992 14.3722C29.1535 14.0307 29.1153 13.6548 29.1894 13.2922C29.2635 12.9296 29.4465 12.5964 29.7153 12.3349C29.9841 12.0734 30.3267 11.8953 30.6997 11.8231C31.0726 11.7509 31.4592 11.7879 31.8106 11.9293C32.162 12.0707 32.4623 12.3103 32.6736 12.6177C32.8849 12.9251 32.9977 13.2865 32.9977 13.6562C32.9987 13.9018 32.9499 14.1451 32.854 14.3722C32.7581 14.5994 32.6171 14.8059 32.4389 14.9799C32.2608 15.1539 32.049 15.292 31.8159 15.3863C31.5827 15.4806 31.3327 15.5292 31.0801 15.5293L31.0761 15.5254ZM40.1786 0.125H4.82143C3.54271 0.125 2.31636 0.61886 1.41216 1.49794C0.50797 2.37701 0 3.5693 0 4.8125L0 39.1875C0 40.4307 0.50797 41.623 1.41216 42.5021C2.31636 43.3811 3.54271 43.875 4.82143 43.875H40.1786C41.4573 43.875 42.6836 43.3811 43.5878 42.5021C44.492 41.623 45 40.4307 45 39.1875V4.8125C45 3.5693 44.492 2.37701 43.5878 1.49794C42.6836 0.61886 41.4573 0.125 40.1786 0.125ZM38.4589 28.4453C38.3294 30.9482 37.7417 33.166 35.8624 34.9883C33.983 36.8105 31.7039 37.3936 29.1325 37.5127C26.4797 37.6582 18.5263 37.6582 15.8735 37.5127C13.2991 37.3867 11.026 36.8145 9.14364 34.9883C7.26127 33.1621 6.66964 30.9434 6.5471 28.4453C6.39743 25.8652 6.39743 18.1318 6.5471 15.5547C6.67667 13.0518 7.25725 10.834 9.14364 9.01172C11.03 7.18945 13.3092 6.61328 15.8735 6.49414C18.5263 6.34863 26.4797 6.34863 29.1325 6.49414C31.7069 6.62012 33.9871 7.19238 35.8624 9.01855C37.7377 10.8447 38.3364 13.0635 38.4589 15.5664C38.6086 18.1367 38.6086 25.8633 38.4589 28.4453Z" fill="#80A1D4"/>
</svg>
