<svg width="532" height="250" viewBox="0 0 532 350" fill="none" xmlns="http://www.w3.org/2000/svg">
<g filter="url(#filter0_i)">
<circle cx="280" cy="175" r="155" stroke="#80A1D4" stroke-width="40"/>
</g>
<path d="M528.557 327.256H232.33C231.418 327.255 230.542 326.885 229.897 326.227C229.252 325.57 228.888 324.678 228.887 323.749V43.5074C228.888 42.5775 229.252 41.6861 229.897 41.0286C230.542 40.3711 231.418 40.0012 232.33 40H528.557C529.47 40.0012 530.345 40.3711 530.99 41.0286C531.636 41.6861 531.999 42.5775 532 43.5074V323.748C531.999 324.678 531.636 325.569 530.99 326.227C530.345 326.884 529.47 327.254 528.557 327.255V327.256ZM232.33 41.4002C231.783 41.4014 231.259 41.6233 230.872 42.0174C230.485 42.4114 230.267 42.9455 230.266 43.5028V323.748C230.267 324.305 230.485 324.839 230.872 325.233C231.259 325.627 231.783 325.849 232.33 325.85H528.557C529.104 325.849 529.628 325.628 530.015 325.233C530.402 324.839 530.62 324.305 530.621 323.748V43.5074C530.62 42.9501 530.402 42.416 530.015 42.022C529.628 41.6279 529.104 41.406 528.557 41.4048L232.33 41.4002Z" fill="#80A1D4"/>
<path d="M372.303 112.822C371.683 112.822 371.088 113.072 370.65 113.519C370.212 113.966 369.965 114.571 369.965 115.203C369.965 115.834 370.212 116.44 370.65 116.887C371.088 117.333 371.683 117.584 372.303 117.584H500.565C501.185 117.584 501.779 117.333 502.217 116.887C502.656 116.44 502.902 115.834 502.902 115.203C502.902 114.571 502.656 113.966 502.217 113.519C501.779 113.072 501.185 112.822 500.565 112.822H372.303Z" fill="#80A1D4"/>
<path d="M372.303 127.11C371.683 127.11 371.088 127.361 370.65 127.807C370.212 128.254 369.965 128.86 369.965 129.491C369.965 130.123 370.212 130.728 370.65 131.175C371.088 131.621 371.683 131.872 372.303 131.872H437.783C438.403 131.872 438.998 131.621 439.436 131.175C439.874 130.728 440.121 130.123 440.121 129.491C440.121 128.86 439.874 128.254 439.436 127.807C438.998 127.361 438.403 127.11 437.783 127.11H372.303Z" fill="#80A1D4"/>
<path d="M260.198 196.268C259.578 196.268 258.983 196.519 258.545 196.966C258.107 197.412 257.86 198.018 257.86 198.649C257.86 199.281 258.107 199.887 258.545 200.333C258.983 200.78 259.578 201.031 260.198 201.031H500.689C501.309 201.031 501.904 200.78 502.342 200.333C502.781 199.887 503.027 199.281 503.027 198.649C503.027 198.018 502.781 197.412 502.342 196.966C501.904 196.519 501.309 196.268 500.689 196.268H260.198Z" fill="#80A1D4"/>
<path d="M260.198 210.557C259.578 210.557 258.983 210.807 258.545 211.254C258.107 211.701 257.86 212.306 257.86 212.938C257.86 213.569 258.107 214.175 258.545 214.621C258.983 215.068 259.578 215.319 260.198 215.319H437.908C438.528 215.319 439.122 215.068 439.561 214.621C439.999 214.175 440.245 213.569 440.245 212.938C440.245 212.306 439.999 211.701 439.561 211.254C439.122 210.807 438.528 210.557 437.908 210.557H260.198Z" fill="#80A1D4"/>
<path d="M260.198 224.522C259.578 224.522 258.983 224.773 258.545 225.219C258.107 225.666 257.86 226.271 257.86 226.903C257.86 227.534 258.107 228.14 258.545 228.587C258.983 229.033 259.578 229.284 260.198 229.284H500.689C501.309 229.284 501.904 229.033 502.342 228.587C502.781 228.14 503.027 227.534 503.027 226.903C503.027 226.271 502.781 225.666 502.342 225.219C501.904 224.773 501.309 224.522 500.689 224.522H260.198Z" fill="#80A1D4"/>
<path d="M260.198 238.81C259.578 238.81 258.983 239.061 258.545 239.508C258.107 239.954 257.86 240.56 257.86 241.191C257.86 241.823 258.107 242.428 258.545 242.875C258.983 243.322 259.578 243.572 260.198 243.572H437.908C438.528 243.572 439.122 243.322 439.561 242.875C439.999 242.428 440.245 241.823 440.245 241.191C440.245 240.56 439.999 239.954 439.561 239.508C439.122 239.061 438.528 238.81 437.908 238.81H260.198Z" fill="#80A1D4"/>
<path d="M339.888 162.991H153.955C153.042 162.99 152.167 162.62 151.522 161.962C150.876 161.305 150.513 160.413 150.512 159.483V76.3607C150.513 75.4308 150.876 74.5393 151.522 73.8817C152.167 73.2242 153.042 72.8543 153.955 72.8533H339.888C340.801 72.8543 341.676 73.2242 342.321 73.8817C342.967 74.5393 343.33 75.4308 343.331 76.3607V159.483C343.33 160.413 342.967 161.305 342.321 161.962C341.676 162.62 340.801 162.99 339.888 162.991Z" fill="#164194"/>
<path d="M499.202 294.403H428.725C427.812 294.402 426.937 294.032 426.291 293.374C425.646 292.717 425.283 291.825 425.282 290.895V279.392C425.283 278.462 425.646 277.571 426.291 276.913C426.937 276.256 427.812 275.886 428.725 275.885H499.202C500.115 275.886 500.99 276.256 501.636 276.913C502.281 277.571 502.644 278.462 502.645 279.392V290.895C502.644 291.825 502.281 292.717 501.636 293.374C500.99 294.032 500.115 294.402 499.202 294.403Z" fill="#164194"/>
<path d="M81.5508 180.683C78.5136 178.373 77.6222 174.057 79.5599 171.042C79.7524 170.747 79.9701 170.47 80.2105 170.213L80.4047 108.805L89.3652 110.509L89.7588 170.906C91.8003 173.318 92.2125 176.834 90.559 179.406C88.6213 182.421 84.5882 182.992 81.5508 180.683Z" fill="#FFB8B8"/>
<path d="M128.15 318.134L137.388 318.133L141.783 281.836L128.149 281.837L128.15 318.134Z" fill="#FFB8B8"/>
<path d="M125.794 315.061L143.986 315.061H143.987C147.062 315.061 150.011 316.305 152.185 318.52C154.359 320.735 155.581 323.739 155.581 326.871V327.255L125.795 327.256L125.794 315.061Z" fill="#2F2E41"/>
<path d="M42.2513 318.134L51.4896 318.133L55.884 281.836L42.25 281.837L42.2513 318.134Z" fill="#FFB8B8"/>
<path d="M39.8951 315.061L58.0877 315.061H58.0884C61.1631 315.061 64.1119 316.305 66.2861 318.52C68.4603 320.735 69.6819 323.739 69.6821 326.871V327.255L39.8957 327.256L39.8951 315.061Z" fill="#2F2E41"/>
<path d="M127.611 307.996L126.837 303.263C126.042 302.98 125.366 302.427 124.922 301.698C124.091 300.36 123.958 298.476 124.528 296.099L118.295 242.478L85.7546 208.085L64.879 259.378L56.6152 299.968V305.832L40.1157 307.99L40.8665 302.463C40.2354 302.187 39.7094 301.71 39.3684 301.103C38.4204 299.496 38.4334 297.004 39.4068 293.699L39.449 293.556L39.3951 293.062C39.3573 292.716 39.6054 259.562 49.2804 243.135L58.97 193.263C58.7184 192.561 57.4761 188.471 59.7544 181.561C62.0029 174.742 68.2914 163.756 85.4811 150.146L85.5402 150.1L85.6134 150.084C85.8038 150.044 104.763 146.204 114.568 159.266L114.634 159.355V159.466C114.634 160.273 114.617 179.066 113.159 183.236L136.426 226.817C136.879 227.306 140.946 232.091 139.502 244.672L143.26 287.557C143.69 288.394 147.581 296.271 143.293 299.389L144.062 304.804L127.611 307.996Z" fill="#2F2E41"/>
<path d="M88.6879 127.783C84.3192 127.783 78.5136 126.21 74.9598 118.959L74.8899 118.817L83.6451 99.9109C84.7794 97.4614 86.8097 95.5615 89.3016 94.6176C91.7934 93.6737 94.549 93.7607 96.9787 94.8601C99.4083 95.9594 101.319 97.9839 102.302 100.5C103.285 103.016 103.263 105.825 102.239 108.324L94.6699 126.81L94.5381 126.859C92.6477 127.478 90.6735 127.79 88.6879 127.783Z" fill="#164194"/>
<path d="M112.94 165.267L85.3394 151.99L89.1333 104.838L96.0501 96.2265L97.39 95.9342C103.548 94.5911 109.946 94.9522 115.921 96.9798L116.052 97.0244L127.414 121.714C127.485 121.838 135.678 136.574 124.352 144.343L112.94 165.267Z" fill="#164194"/>
<path d="M150.885 150.24C150.555 150.38 150.237 150.546 149.934 150.737L120.849 137.184L120.103 129.306L108.284 128.899L108.274 142.977C108.274 144.114 108.635 145.221 109.304 146.131C109.974 147.042 110.915 147.706 111.986 148.025L146.912 158.423C147.271 159.775 148.025 160.984 149.074 161.888C150.124 162.793 151.419 163.35 152.787 163.487C154.155 163.624 155.532 163.333 156.733 162.653C157.935 161.973 158.905 160.936 159.515 159.681C160.124 158.426 160.344 157.011 160.145 155.626C159.946 154.24 159.338 152.949 158.401 151.924C157.464 150.899 156.243 150.189 154.901 149.888C153.558 149.588 152.157 149.71 150.885 150.24L150.885 150.24Z" fill="#FFB8B8"/>
<path d="M115.31 132.668C111.996 132.668 108.255 131.5 104.665 127.843L104.555 127.731L106.98 106.973C107.295 104.284 108.63 101.826 110.7 100.127C112.77 98.4275 115.411 97.6209 118.057 97.8797C120.703 98.1385 123.145 99.4421 124.86 101.512C126.575 103.581 127.427 106.252 127.233 108.953L125.801 128.929L125.692 129.018C125.621 129.076 121.121 132.668 115.31 132.668Z" fill="#164194"/>
<path d="M124.179 79.8009C129.081 70.6648 125.785 59.2099 116.817 54.2156C107.848 49.2213 96.6037 52.579 91.7011 61.7151C86.7986 70.8512 90.0946 82.3062 99.063 87.3004C108.031 92.2947 119.276 88.9371 124.179 79.8009Z" fill="#FFB8B8"/>
<path d="M126.775 60.769C125.857 55.3279 121.569 50.8174 116.461 48.9719C111.353 47.1263 105.593 47.7265 100.591 49.8518C99.7584 50.2073 98.9439 50.6062 98.1512 51.047C96.3229 47.497 91.8407 45.4381 87.7411 45.6603C82.7884 45.9287 78.3156 48.5983 74.0141 51.1143C69.7127 53.6303 65.0969 56.1336 60.1381 56.0164C51.1771 55.8048 44.5105 47.3416 35.8937 44.8265C32.0578 43.7069 27.9763 43.8201 24.2059 45.1508C20.4355 46.4815 17.16 48.9647 14.8262 52.2618C12.4925 55.5589 11.2141 59.5092 11.1655 63.5737C11.1169 67.6382 12.3005 71.619 14.5549 74.973C18.2315 68.261 26.8656 65.994 34.3574 66.9078C41.8489 67.8215 48.8311 71.1668 56.1705 72.9487C63.5102 74.7306 72.0105 74.6541 77.6954 69.6008C80.9204 66.7345 82.8139 62.6376 85.6213 59.347C87.5203 57.1212 90.2238 55.2418 92.9861 54.7994C90.2653 57.2955 88.1881 60.4342 86.9371 63.9398C84.7221 70.3506 85.9063 78.0481 90.5013 82.9756C95.4273 88.2584 103.159 89.6663 110.311 89.5809L110.46 89.4259C108.271 86.0869 106.542 81.457 108.953 78.2801C111.333 75.1441 116.027 75.6061 119.672 74.2184C124.749 72.2857 127.693 66.2101 126.775 60.769Z" fill="#2F2E41"/>
<path d="M176.73 328H0.644999C0.473935 328 0.309876 327.931 0.188915 327.808C0.0679546 327.684 0 327.517 0 327.343C0 327.169 0.0679546 327.002 0.188915 326.878C0.309876 326.755 0.473935 326.686 0.644999 326.686H176.73C176.901 326.686 177.065 326.755 177.186 326.878C177.307 327.002 177.375 327.169 177.375 327.343C177.375 327.517 177.307 327.684 177.186 327.808C177.065 327.931 176.901 328 176.73 328Z" fill="#CCCCCC"/>
<path d="M238.579 102.007C237.771 102.009 237.118 103.077 237.119 104.393C237.121 105.704 237.773 106.766 238.579 106.769H307.509C308.317 106.766 308.97 105.698 308.968 104.383C308.967 103.072 308.314 102.009 307.509 102.007H238.579Z" fill="white"/>
<path d="M238.579 115.805C237.771 115.808 237.118 116.876 237.119 118.191C237.121 119.502 237.773 120.565 238.579 120.567H307.509C308.317 120.565 308.97 119.496 308.968 118.181C308.967 116.87 308.314 115.808 307.509 115.805H238.579Z" fill="white"/>
<path d="M238.579 129.436C237.771 129.439 237.118 130.507 237.119 131.822C237.121 133.134 237.773 134.196 238.579 134.199H268.239C269.047 134.196 269.7 133.128 269.699 131.813C269.697 130.501 269.045 129.439 268.239 129.436H238.579Z" fill="white"/>
<path d="M203.579 136.977C213.91 136.977 222.284 128.446 222.284 117.922C222.284 107.398 213.91 98.8673 203.579 98.8673C193.249 98.8673 184.874 107.398 184.874 117.922C184.874 128.446 193.249 136.977 203.579 136.977Z" fill="white"/>
<defs>
<filter id="filter0_i" x="105" y="0" width="350" height="354" filterUnits="userSpaceOnUse" color-interpolation-filters="sRGB">
<feFlood flood-opacity="0" result="BackgroundImageFix"/>
<feBlend mode="normal" in="SourceGraphic" in2="BackgroundImageFix" result="shape"/>
<feColorMatrix in="SourceAlpha" type="matrix" values="0 0 0 0 0 0 0 0 0 0 0 0 0 0 0 0 0 0 127 0" result="hardAlpha"/>
<feOffset dy="4"/>
<feGaussianBlur stdDeviation="2"/>
<feComposite in2="hardAlpha" operator="arithmetic" k2="-1" k3="1"/>
<feColorMatrix type="matrix" values="0 0 0 0 0 0 0 0 0 0 0 0 0 0 0 0 0 0 0.25 0"/>
<feBlend mode="normal" in2="shape" result="effect1_innerShadow"/>
</filter>
</defs>
</svg>
