<svg width="194" height="542" viewBox="0 0 194 542" fill="none" xmlns="http://www.w3.org/2000/svg">
<path d="M370 462.5C370 573.785 288.74 664 188.5 664C88.2603 664 7 573.785 7 462.5C7 351.215 88.2603 261 188.5 261C288.74 261 370 351.215 370 462.5Z" fill="#164194"/>
<g clip-path="url(#clip0)">
<path fill-rule="evenodd" clip-rule="evenodd" d="M162.61 391.318C165.851 390.917 168.197 388.761 167.925 385.507L162.104 315.181C161.685 310.168 157.179 306.509 152.185 307.127C147.19 307.745 143.712 312.392 144.528 317.356L156.592 387.001C157.121 390.223 159.369 391.719 162.61 391.318Z" fill="#FFC999"/>
<path fill-rule="evenodd" clip-rule="evenodd" d="M122.906 390.323C119.641 390.399 116.898 387.886 116.691 384.627L112.274 314.93C111.955 309.909 115.879 305.632 120.909 305.513C125.941 305.394 130.061 309.483 129.979 314.514L128.846 384.342C128.793 387.606 126.172 390.246 122.906 390.323Z" fill="#FFC999"/>
<path fill-rule="evenodd" clip-rule="evenodd" d="M119.377 240.413C113.449 240.552 108.798 245.543 109.078 251.465L112.093 315.125C112.326 320.029 116.43 323.851 121.339 323.735C126.248 323.619 130.168 319.608 130.168 314.7L130.184 250.968C130.186 245.04 125.305 240.274 119.377 240.413Z" fill="#FFC999"/>
<path fill-rule="evenodd" clip-rule="evenodd" d="M144.182 242.502C150.066 241.774 155.397 246.032 155.986 251.93L162.311 315.348C162.799 320.232 159.297 324.613 154.424 325.216C149.551 325.819 145.087 322.424 144.368 317.569L135.033 254.523C134.165 248.659 138.297 243.231 144.182 242.502Z" fill="#FFC999"/>
<path fill-rule="evenodd" clip-rule="evenodd" d="M115.696 392.878L128.307 393.043L128.645 416.144L100.228 415.775L100.205 412.229C100.2 410.925 101.132 409.806 102.415 409.573L109.987 407.453L113.891 405.298C115.067 404.649 115.79 403.409 115.772 402.066C115.734 399.18 115.674 394.284 115.696 392.878Z" fill="#4E5C93"/>
<path fill-rule="evenodd" clip-rule="evenodd" d="M169.756 392.593L157.147 392.876L159.448 415.98L187.859 415.342L187.849 411.795C187.841 410.492 186.898 409.381 185.614 409.16L178.021 407.112L174.097 404.994C172.915 404.356 171.876 403.056 171.452 401.781C170.67 399.423 169.791 393.998 169.756 392.593Z" fill="#4E5C93"/>
<path fill-rule="evenodd" clip-rule="evenodd" d="M116.83 393.608L128.301 393.756L129.182 375.627L116.012 375.456L116.83 393.608Z" fill="#597EF7"/>
<path fill-rule="evenodd" clip-rule="evenodd" d="M169.583 393.333L157.381 393.59L154.145 375.47L167.313 375.175L169.583 393.333Z" fill="#597EF7"/>
<path d="M116.112 378.7C115.904 378.697 115.734 378.864 115.731 379.072C115.729 379.262 115.868 379.421 116.052 379.449L116.103 379.453L128.261 379.61C128.469 379.613 128.64 379.447 128.643 379.239C128.645 379.048 128.505 378.889 128.322 378.862L128.271 378.857L116.112 378.7Z" fill="#E4EBF7"/>
<path d="M100.087 412.185C99.9808 412.184 99.8934 412.269 99.892 412.375C99.8908 412.468 99.9559 412.547 100.043 412.566L100.082 412.57L128.412 412.938C128.519 412.939 128.606 412.854 128.607 412.748C128.609 412.655 128.544 412.576 128.456 412.557L128.417 412.553L100.087 412.185Z" fill="#A3B5D6"/>
<path d="M167.229 378.419L155.072 378.692C154.864 378.697 154.7 378.869 154.704 379.077C154.709 379.268 154.854 379.422 155.038 379.443L155.089 379.445L167.246 379.172C167.453 379.167 167.618 378.995 167.614 378.787C167.609 378.597 167.464 378.442 167.28 378.421L167.229 378.419Z" fill="#E4EBF7"/>
<path d="M187.966 411.75L159.64 412.387C159.534 412.389 159.45 412.478 159.452 412.584C159.454 412.677 159.522 412.753 159.61 412.769L159.649 412.772L187.975 412.136C188.081 412.133 188.165 412.045 188.163 411.939C188.161 411.846 188.093 411.769 188.005 411.753L187.966 411.75Z" fill="#A3B5D6"/>
<path fill-rule="evenodd" clip-rule="evenodd" d="M100.084 412.376C100.11 410.375 101.585 408.687 103.565 408.394L109.986 407.441L110.345 412.439L100.084 412.376Z" fill="#E4EBF7"/>
<path fill-rule="evenodd" clip-rule="evenodd" d="M128.36 416.892L100.03 416.525C99.7611 416.522 99.5464 416.301 99.55 416.032L99.5911 412.857C99.5948 412.588 99.8156 412.373 100.084 412.376L128.413 412.744C128.682 412.747 128.897 412.968 128.894 413.237L128.852 416.412C128.849 416.681 128.629 416.896 128.36 416.892Z" fill="#E4EBF7"/>
<path d="M115.984 400.898C115.776 400.851 115.57 400.982 115.523 401.189C115.477 401.397 115.607 401.603 115.815 401.649L115.923 401.677L115.964 401.688C116.091 401.724 116.232 401.769 116.385 401.823C116.823 401.979 117.26 402.181 117.665 402.432C117.828 402.533 117.981 402.639 118.125 402.752L118.183 402.798L118.169 402.8C118.019 402.82 117.859 402.845 117.69 402.873L117.34 402.936C117.103 402.981 116.854 403.031 116.598 403.087C116.362 403.138 116.128 403.191 115.9 403.246L115.218 403.415C115.183 403.424 115.154 403.431 115.13 403.438C114.804 403.525 114.739 403.96 115.027 404.138L115.062 404.161C115.086 404.176 115.117 404.197 115.155 404.224C115.264 404.301 115.387 404.394 115.52 404.503C115.794 404.727 116.067 404.982 116.331 405.269L116.368 405.31L116.292 405.31C116.152 405.311 116.007 405.314 115.859 405.321L115.633 405.333C115.004 405.372 114.334 405.457 113.654 405.574C113.404 405.617 113.163 405.663 112.938 405.709L112.494 405.804C112.433 405.818 112.384 405.83 112.349 405.838C111.942 405.938 111.965 406.523 112.378 406.592C112.444 406.603 112.575 406.636 112.75 406.7C113.047 406.809 113.344 406.964 113.62 407.175C113.893 407.383 114.131 407.635 114.325 407.934C114.441 408.113 114.68 408.164 114.858 408.048C115.037 407.932 115.088 407.694 114.972 407.515C114.728 407.139 114.429 406.823 114.088 406.562C114.009 406.503 113.931 406.447 113.853 406.396L113.763 406.337L113.785 406.333C114.33 406.24 114.867 406.167 115.378 406.124L115.681 406.102C116.246 406.067 116.749 406.073 117.172 406.126C117.507 406.167 117.73 405.789 117.531 405.516C117.437 405.388 117.34 405.263 117.24 405.14C116.904 404.73 116.548 404.37 116.189 404.058L116.107 403.989L116.417 403.916L116.761 403.84C117.011 403.786 117.252 403.737 117.483 403.693L117.785 403.639C118.321 403.547 118.755 403.498 119.051 403.502C119.379 403.507 119.562 403.125 119.354 402.872C119.006 402.451 118.572 402.088 118.071 401.777C117.615 401.495 117.13 401.27 116.644 401.097L116.437 401.026C116.242 400.963 116.087 400.921 115.984 400.898Z" fill="#E4EBF7"/>
<path d="M115.945 397.497L116.132 397.5C116.192 397.502 116.259 397.504 116.331 397.508L116.445 397.513C116.735 397.529 117.048 397.554 117.38 397.591C118.29 397.692 119.197 397.864 120.052 398.125C122.496 398.871 124.114 400.204 124.432 402.275C124.635 403.604 124.052 404.27 122.941 404.087C122.168 403.96 121.123 403.431 119.847 402.583C119.467 402.33 119.072 402.053 118.666 401.754C117.978 401.249 117.29 400.709 116.634 400.168L116.243 399.843L115.778 399.445C115.722 399.41 115.594 399.308 115.464 399.176C115.243 398.953 115.096 398.721 115.064 398.46C115.013 398.033 115.292 397.701 115.816 397.518C115.858 397.504 115.901 397.497 115.945 397.497ZM116.011 398.268C115.931 398.3 115.879 398.33 115.849 398.356L115.831 398.373L115.83 398.368C115.836 398.42 115.901 398.523 116.013 398.635C116.103 398.727 116.195 398.8 116.25 398.838L116.863 399.357C116.946 399.427 117.034 399.499 117.124 399.574C117.77 400.106 118.447 400.638 119.122 401.133C119.519 401.425 119.905 401.696 120.274 401.941C121.464 402.731 122.433 403.223 123.066 403.327C123.631 403.42 123.798 403.229 123.67 402.392C123.406 400.675 122.018 399.531 119.826 398.862C119.022 398.616 118.161 398.453 117.295 398.357C116.851 398.307 116.468 398.282 116.171 398.272L116.011 398.268Z" fill="#E4EBF7"/>
<path fill-rule="evenodd" clip-rule="evenodd" d="M159.737 416.726L188.063 416.089C188.331 416.083 188.544 415.861 188.538 415.592L188.467 412.417C188.461 412.148 188.238 411.935 187.969 411.941L159.644 412.578C159.375 412.584 159.163 412.806 159.169 413.075L159.241 416.251C159.246 416.519 159.469 416.731 159.737 416.726Z" fill="#E4EBF7"/>
<path fill-rule="evenodd" clip-rule="evenodd" d="M187.969 411.941C187.924 409.94 186.434 408.267 184.45 407.992L178.02 407.1L177.709 412.102L187.969 411.941Z" fill="#E4EBF7"/>
<path d="M172.424 400.902C172.375 400.694 172.168 400.566 171.961 400.614L171.842 400.645C171.707 400.682 171.524 400.739 171.306 400.819C170.825 400.995 170.344 401.222 169.892 401.507C169.39 401.824 168.956 402.193 168.61 402.621C168.403 402.876 168.59 403.256 168.918 403.248C169.268 403.24 169.813 403.304 170.491 403.425C170.727 403.467 170.975 403.515 171.231 403.568L171.572 403.641L171.868 403.706L171.792 403.771C171.498 404.031 171.205 404.324 170.925 404.652L170.758 404.852C170.655 404.981 170.554 405.112 170.458 405.248C170.261 405.522 170.488 405.899 170.822 405.854C171.247 405.797 171.753 405.786 172.321 405.816C172.829 405.843 173.368 405.901 173.918 405.983L174.234 406.032L174.155 406.083L174.04 406.164L173.924 406.25C173.58 406.516 173.279 406.838 173.036 407.222C172.922 407.402 172.975 407.64 173.155 407.754C173.334 407.868 173.572 407.814 173.686 407.635C173.88 407.329 174.119 407.073 174.395 406.86C174.667 406.65 174.961 406.494 175.253 406.384C175.426 406.319 175.556 406.285 175.621 406.274C176.033 406.201 176.05 405.615 175.642 405.52L175.365 405.459L175.285 405.442C175.006 405.385 174.699 405.328 174.374 405.274C173.683 405.161 173.002 405.081 172.362 405.047C172.132 405.035 171.911 405.029 171.699 405.029L171.619 405.03L171.665 404.977C171.873 404.748 172.087 404.539 172.302 404.349L172.463 404.211C172.561 404.129 172.654 404.056 172.739 403.993L172.913 403.868C172.929 403.858 172.94 403.85 172.948 403.845C173.234 403.665 173.166 403.23 172.838 403.146L172.412 403.042C172.084 402.964 171.738 402.886 171.388 402.814C171.125 402.759 170.87 402.709 170.626 402.666C170.384 402.623 170.158 402.587 169.949 402.558L169.78 402.536L169.842 402.485C169.938 402.408 170.039 402.335 170.143 402.264L170.303 402.159C170.705 401.906 171.138 401.701 171.572 401.542C171.685 401.501 171.793 401.465 171.892 401.434L172.066 401.383C172.098 401.374 172.122 401.368 172.137 401.365C172.344 401.316 172.473 401.109 172.424 400.902Z" fill="#E4EBF7"/>
<path d="M171.97 397.213C172.013 397.213 172.056 397.22 172.096 397.234C172.634 397.415 172.916 397.757 172.854 398.193C172.818 398.446 172.675 398.671 172.463 398.889C172.334 399.022 172.208 399.124 172.117 399.188L172.1 399.205C172.07 399.233 172.005 399.29 171.922 399.362L171.565 399.669C171.481 399.742 171.392 399.816 171.301 399.893C170.648 400.442 169.962 400.991 169.277 401.504C168.873 401.806 168.479 402.088 168.101 402.344C166.836 403.201 165.799 403.738 165.029 403.871C163.923 404.062 163.336 403.4 163.526 402.072C163.821 400.018 165.4 398.676 167.8 397.902C168.714 397.607 169.689 397.416 170.663 397.306C170.935 397.275 171.192 397.252 171.43 397.237L171.604 397.227C171.776 397.217 171.901 397.214 171.97 397.213ZM171.908 397.985L171.789 397.989L171.645 397.996C171.375 398.01 171.074 398.035 170.749 398.071C169.822 398.176 168.897 398.358 168.037 398.635C165.887 399.328 164.534 400.479 164.289 402.182C164.169 403.018 164.338 403.208 164.898 403.112C165.528 403.003 166.49 402.505 167.669 401.706C168.036 401.457 168.42 401.183 168.815 400.887C169.353 400.484 169.892 400.058 170.416 399.627L170.805 399.303C170.94 399.19 171.068 399.081 171.188 398.978L171.639 398.585C171.729 398.519 171.82 398.445 171.91 398.353L171.953 398.306C172.022 398.228 172.067 398.159 172.084 398.111L172.09 398.089C172.067 398.062 172.01 398.025 171.908 397.985Z" fill="#E4EBF7"/>
<path fill-rule="evenodd" clip-rule="evenodd" d="M103.07 141.821C103.07 141.821 95.4118 139.429 92.0137 147.383C83.9742 148.93 84.7201 157.547 84.7201 157.547C84.7201 157.547 79.8625 163.445 86.9093 167.992C86.4484 174.758 94.2235 174.758 94.2235 174.758C94.2235 174.758 95.2177 180.201 101.319 179.001C106.762 184.828 118.631 185.731 123.736 180.488C130.999 187.962 146.553 182.745 145.651 176.838C155.377 177.796 161.681 168.329 157.425 158.751C162.859 152.583 158.565 147.742 158.565 147.742C158.565 147.742 162.452 132.199 151.876 128.331C147.625 118.947 134.405 123.827 134.405 123.827C134.405 123.827 126.637 120.875 122.64 127.386C113.44 127.331 113.071 132.332 111.718 136.364C103.61 135.534 103.07 141.821 103.07 141.821Z" fill="#253368"/>
<path fill-rule="evenodd" clip-rule="evenodd" d="M129.216 138.109C135.335 140.221 138.011 135.764 138.011 135.764C138.011 135.764 141.682 129.472 141.688 133.697C141.691 135.942 145.541 133.579 146.723 136.161C147.519 137.898 144.577 139.502 147.31 144.233C148.893 146.973 140.808 147.664 144.89 152.901C144.89 152.901 140.605 157.812 146.179 160.528L145.776 167.025C145.542 170.806 142.096 173.56 138.354 172.955C134.788 172.38 132.401 168.972 133.08 165.424L134.566 157.662C125.469 156.207 127.025 143.637 129.216 138.109Z" fill="#FFC999"/>
<path fill-rule="evenodd" clip-rule="evenodd" d="M76.6995 167.531L72.0837 151.225C72.0837 151.225 64.524 137.994 61.7941 138.807C59.2584 139.917 64.99 143.704 66.1264 147.443C63.713 147.27 64.809 150.859 64.809 150.859C64.809 150.859 62.888 150.789 63.4045 153.713C61.6205 154.768 63.0506 158.124 63.0506 158.124C63.0506 158.124 66.6348 166.964 70.6059 172.86C70.6059 172.86 77.194 177.946 76.6995 167.531Z" fill="#FFC999"/>
<path fill-rule="evenodd" clip-rule="evenodd" d="M75.6739 162.022C75.6739 162.022 74.9851 156.429 74.4701 153.581C73.955 150.732 75.1588 145.586 73.0802 146.949C71.683 147.866 71.9263 150.927 71.9768 153.184C72.0266 155.441 68.3802 160.791 71.0976 164.494C72.9337 166.996 75.8285 167.325 75.6739 162.022Z" fill="#FFC999"/>
<path fill-rule="evenodd" clip-rule="evenodd" d="M71.436 166.421C73.3285 165.164 75.876 165.617 77.2182 167.45L103.133 202.835C105.407 206.166 104.52 210.712 101.16 212.943C97.7702 215.194 93.1918 214.212 91.0253 210.769L70.0491 171.981C69.0036 170.048 69.6051 167.638 71.436 166.421Z" fill="#FFC999"/>
<path d="M139.758 146.618C139.625 146.435 139.37 146.394 139.187 146.527L139.135 146.562C139.101 146.584 139.054 146.613 138.995 146.647C138.827 146.745 138.63 146.844 138.409 146.937C137.383 147.366 136.235 147.508 135.025 147.192C134.807 147.135 134.584 147.266 134.527 147.485C134.47 147.703 134.6 147.926 134.819 147.983C136.218 148.348 137.545 148.184 138.725 147.691C139.165 147.507 139.485 147.32 139.666 147.189C139.849 147.056 139.89 146.801 139.758 146.618Z" fill="#F5222D"/>
<path d="M140.035 140.149C139.82 140.115 139.618 140.261 139.584 140.476C139.346 141.968 140.274 143.37 141.678 143.595C143.081 143.819 144.401 142.776 144.639 141.284C144.674 141.069 144.527 140.868 144.313 140.833C144.098 140.799 143.897 140.945 143.862 141.16C143.69 142.237 142.761 142.971 141.802 142.818C140.843 142.664 140.189 141.677 140.361 140.6C140.396 140.385 140.249 140.184 140.035 140.149Z" fill="#253368"/>
<path d="M130.19 138.849C129.987 138.816 129.795 138.955 129.763 139.158C129.526 140.632 130.341 142.015 131.625 142.22C132.908 142.425 134.114 141.366 134.35 139.892C134.382 139.689 134.244 139.497 134.04 139.465C133.837 139.432 133.645 139.57 133.613 139.774C133.437 140.869 132.585 141.618 131.743 141.483C130.9 141.348 130.324 140.371 130.5 139.276C130.532 139.073 130.394 138.881 130.19 138.849Z" fill="#253368"/>
<path d="M144.135 136.188C142.844 135.688 141.48 135.663 140.213 135.919L140.009 135.963C139.82 136.006 139.675 136.048 139.583 136.079C139.377 136.149 139.267 136.372 139.336 136.578C139.406 136.784 139.63 136.894 139.835 136.824L139.922 136.797C140.025 136.767 140.176 136.729 140.368 136.69C141.501 136.462 142.72 136.484 143.851 136.922C144.378 137.126 144.866 137.416 145.307 137.801C145.471 137.944 145.72 137.927 145.863 137.763C146.005 137.599 145.988 137.351 145.825 137.208C145.313 136.762 144.746 136.425 144.135 136.188Z" fill="#253368"/>
<path fill-rule="evenodd" clip-rule="evenodd" d="M92.6485 212.326C89.306 209.997 88.4862 205.4 90.8168 202.059L113.522 169.504C115.853 166.163 120.45 165.343 123.793 167.672C127.134 170.001 127.954 174.598 125.624 177.939L102.918 210.494C100.588 213.836 95.9909 214.655 92.6485 212.326Z" fill="#FFC999"/>
<path d="M125.933 177.87C125.839 177.805 125.714 177.818 125.636 177.896L125.609 177.928L116.118 191.535L104.299 183.106C104.205 183.04 104.08 183.052 104.001 183.129L103.974 183.161C103.907 183.254 103.919 183.379 103.996 183.458L104.028 183.486L116.039 192.051C116.133 192.118 116.259 192.106 116.338 192.027L116.366 191.995L125.991 178.195C126.064 178.089 126.039 177.944 125.933 177.87Z" fill="#4E5C93"/>
<path fill-rule="evenodd" clip-rule="evenodd" d="M116 191.74L125.625 177.939C127.946 174.613 127.121 169.992 123.793 167.673C120.465 165.353 115.843 166.177 113.523 169.505L103.989 183.174L116 191.74Z" fill="#80A1D4"/>
<path fill-rule="evenodd" clip-rule="evenodd" d="M119.237 179.63C117.661 183.062 114.741 188.972 114.378 192.875C113.789 199.205 117.911 203.915 117.911 203.915C117.911 203.915 117.953 202.053 118.353 218.452C137.235 221.763 149.275 218.242 149.275 218.242L148.907 213.895L151.973 203.62C151.973 203.62 153.836 199.793 157.664 191.257C160.325 185.322 160.141 177.965 159.78 174.031C159.626 172.346 160.427 168.827 158.754 168.564C153.071 167.671 149.127 167.189 149.127 167.189L148.435 165.065C148.343 164.422 147.792 163.944 147.142 163.944H132.529C131.933 163.944 131.413 164.348 131.265 164.926L130.241 167.189L122.54 167.464C121.191 167.729 120.024 171.953 119.884 173.32L119.237 179.63Z" fill="#80A1D4"/>
<path d="M149.312 167.77C149.193 167.676 149.026 167.684 148.917 167.783L148.883 167.82L135.69 184.449L130.57 168.937C130.522 168.793 130.377 168.708 130.232 168.731L130.184 168.742C130.04 168.79 129.955 168.935 129.978 169.08L129.989 169.128L135.287 185.178C135.358 185.394 135.626 185.455 135.784 185.307L135.816 185.273L149.362 168.199C149.466 168.067 149.444 167.875 149.312 167.77Z" fill="#DED9E2"/>
<path fill-rule="evenodd" clip-rule="evenodd" d="M131.795 186.374C130.409 188.71 131.034 191.641 133.19 192.92C135.346 194.198 138.218 193.339 139.604 191.003C140.99 188.666 140.366 185.735 138.209 184.457C136.053 183.179 133.181 184.037 131.795 186.374Z" fill="#DED9E2"/>
<path fill-rule="evenodd" clip-rule="evenodd" d="M131.297 186.362C129.911 188.698 130.536 191.629 132.692 192.907C134.848 194.186 137.72 193.327 139.107 190.99C140.492 188.653 139.868 185.723 137.711 184.445C135.555 183.167 132.683 184.025 131.297 186.362Z" fill="#DED9E2"/>
<path fill-rule="evenodd" clip-rule="evenodd" d="M132.177 186.769C131.101 188.583 131.586 190.858 133.26 191.85C134.935 192.843 137.164 192.177 138.24 190.363C139.316 188.548 138.832 186.273 137.157 185.281C135.483 184.288 133.253 184.954 132.177 186.769Z" fill="#75C9C8"/>
<path d="M159.774 173.798C159.645 173.802 159.544 173.909 159.548 174.037L159.568 174.964L159.571 175.14C159.603 176.986 159.606 178.935 159.563 180.76L159.549 181.285C159.491 183.265 159.377 184.856 159.199 185.927C158.997 187.14 158.219 189.202 157.014 191.859C156.803 192.324 156.582 192.802 156.35 193.292C155.712 194.642 155.028 196.021 154.344 197.354L153.998 198.024L153.443 199.085L153.417 199.137L148.465 213.897L148.454 213.994L148.876 218.278L148.509 218.35C148.404 218.369 148.293 218.39 148.176 218.411L147.995 218.443C147.109 218.6 146.082 218.757 144.927 218.903C137.041 219.902 128.114 219.907 118.918 218.266L118.544 218.198L118.512 217.006C118.489 216.226 118.453 215.154 118.408 213.832L118.227 208.722L118.069 204.422L118.04 204.318L117.927 204.108L117.747 203.762C117.696 203.663 117.643 203.559 117.588 203.449L117.505 203.282C117.102 202.468 116.699 201.585 116.323 200.666C115.789 199.358 115.354 198.085 115.055 196.889C114.766 195.733 114.612 194.682 114.612 193.759C114.612 191.451 114.918 189.679 115.605 187.851C115.95 186.936 116.391 185.991 117.028 184.786L117.345 184.196C117.772 183.411 118.599 181.921 119.077 181.06L119.441 180.404L119.47 180.3L119.617 176.4C119.622 176.272 119.522 176.164 119.393 176.159C119.279 176.154 119.181 176.233 119.157 176.341L119.152 176.383L119.007 180.227L117.098 183.676L116.747 184.322L116.489 184.81C115.911 185.919 115.498 186.814 115.169 187.687C114.462 189.569 114.146 191.396 114.146 193.759C114.146 194.724 114.305 195.812 114.603 197.002C114.908 198.222 115.35 199.515 115.892 200.842C116.218 201.64 116.564 202.409 116.913 203.132L117.087 203.489C117.173 203.662 117.255 203.824 117.333 203.975L117.606 204.494L117.987 215.165C118.043 216.843 118.076 217.946 118.079 218.329L118.08 218.393C118.08 218.505 118.16 218.601 118.27 218.622C127.717 220.374 136.894 220.39 144.986 219.365C146.032 219.233 146.975 219.092 147.804 218.95L148.076 218.902C148.264 218.869 148.437 218.837 148.596 218.807L149.178 218.691C149.279 218.668 149.351 218.583 149.36 218.484L149.36 218.44L148.923 213.997L153.843 199.321L154.095 198.845C154.296 198.464 154.518 198.035 154.759 197.567C155.445 196.229 156.131 194.846 156.771 193.491L157.113 192.762C157.168 192.642 157.223 192.523 157.277 192.404L157.438 192.052C158.66 189.358 159.447 187.27 159.659 186.003C159.857 184.812 159.976 183.016 160.029 180.771C160.066 179.201 160.069 177.54 160.049 175.931L160.031 174.785L160.014 174.024C160.01 173.896 159.903 173.794 159.774 173.798Z" fill="#164194"/>
<path fill-rule="evenodd" clip-rule="evenodd" d="M173.678 217.817L173.889 217.736C177.628 216.284 179.483 212.077 178.031 208.339L164.183 172.682C162.731 168.943 158.522 167.09 154.782 168.541L154.572 168.623C150.833 170.074 148.978 174.281 150.43 178.02L164.278 213.676C165.73 217.415 169.939 219.269 173.678 217.817Z" fill="#FFC999"/>
<path fill-rule="evenodd" clip-rule="evenodd" d="M148.978 221.718C155.612 222.237 175.176 263.63 181.125 278.616C180.333 281.635 171.677 287.477 171.677 287.477C171.677 287.477 172.194 289.879 172.514 291.323C166.852 295.977 155.903 298.505 155.903 298.505L155.879 300.57C138.374 308.628 114.932 300.906 114.932 300.906C114.932 300.906 114.495 300.458 114.808 298.839C106.86 298.746 89.8411 288.666 89.8411 288.666L92.2603 283.679L85.2605 276.517C85.2605 276.517 104.163 241.754 109.981 232.031C115.089 223.495 119.88 221.037 119.88 221.037C119.88 221.037 137.207 220.797 148.978 221.718Z" fill="#4E5C93"/>
<path fill-rule="evenodd" clip-rule="evenodd" d="M118.613 221.717L119.113 217.926C119.113 217.926 134.085 218.016 148.77 217.28C149.141 218.963 149.567 221.992 149.567 221.992C148.333 220.978 134.994 223.939 118.613 221.717Z" fill="#4E5C93"/>
<path d="M119.159 229.11C119.027 229.046 118.871 229.088 118.789 229.204L118.764 229.245L89.8744 288.244C89.8131 288.369 89.8478 288.52 89.9576 288.606L90.1389 288.744L90.4345 288.961C90.5068 289.013 90.5834 289.068 90.6644 289.125C91.2413 289.535 91.9202 289.99 92.6968 290.481C94.9135 291.881 97.4698 293.281 100.332 294.588C104.781 296.618 109.556 298.232 114.599 299.273C114.758 299.306 114.915 299.204 114.947 299.044C114.98 298.885 114.878 298.729 114.718 298.696C109.721 297.664 104.988 296.064 100.577 294.051C97.74 292.756 95.2068 291.369 93.0119 289.983C92.3297 289.552 91.7244 289.148 91.199 288.781L90.8899 288.562L90.5114 288.285L119.294 229.505C119.358 229.373 119.316 229.217 119.2 229.135L119.159 229.11Z" fill="#164194"/>
<path d="M154.115 241.363C154.058 241.211 153.888 241.134 153.735 241.191C153.598 241.243 153.522 241.386 153.55 241.525L153.564 241.571L172.444 291.5L172.134 291.692L171.759 291.918C171.432 292.112 171.071 292.32 170.678 292.54C169.104 293.418 167.34 294.296 165.429 295.115C162.313 296.451 159.117 297.497 155.919 298.143C155.759 298.175 155.656 298.331 155.688 298.49C155.721 298.65 155.876 298.753 156.036 298.721C159.276 298.066 162.511 297.008 165.661 295.657C167.592 294.829 169.374 293.942 170.965 293.055C171.443 292.788 171.874 292.538 172.255 292.309L172.651 292.067L172.967 291.867C173.069 291.8 173.118 291.677 173.093 291.56L173.081 291.516L154.115 241.363Z" fill="#164194"/>
<path d="M141.461 222.833L141.413 222.839C141.269 222.868 141.171 222.996 141.176 223.138L141.184 223.198L142.314 228.899C142.703 230.872 143.118 232.985 143.554 235.218L143.794 236.447C145.613 245.774 147.432 255.272 149.146 264.457L149.54 266.571C149.749 267.697 149.956 268.814 150.16 269.918L151.251 275.875C152.86 284.722 154.224 292.547 155.293 299.112L155.545 300.665L155.142 300.798C154.715 300.937 154.285 301.071 153.853 301.199L153.203 301.388C142.704 304.36 131.483 304.191 120.886 302.12C119.205 301.792 117.688 301.44 116.362 301.088L115.978 300.985C115.794 300.934 115.62 300.886 115.457 300.839L114.978 300.698L128.125 234.828C128.153 234.685 128.072 234.545 127.939 234.495L127.893 234.482C127.749 234.453 127.609 234.534 127.559 234.667L127.546 234.713L114.347 300.844C114.318 300.991 114.403 301.136 114.546 301.182L114.978 301.314L115.294 301.406C115.515 301.469 115.754 301.536 116.013 301.605L116.211 301.658C117.549 302.013 119.079 302.368 120.773 302.699C131.453 304.786 142.762 304.956 153.364 301.955C154.243 301.706 155.112 301.436 155.97 301.144C156.106 301.098 156.189 300.96 156.166 300.819L155.8 298.558C154.742 292.084 153.403 284.415 151.831 275.77L151.144 272.006C150.81 270.19 150.469 268.341 150.12 266.463C148.422 257.327 146.611 247.842 144.792 238.49L143.217 230.431L141.76 223.07C141.731 222.927 141.603 222.828 141.461 222.833Z" fill="#164194"/>
<path d="M134.386 223.969C134.24 223.961 134.112 224.061 134.081 224.199L134.075 224.247L130.973 279.247C130.964 279.409 131.088 279.548 131.251 279.558C131.397 279.566 131.524 279.466 131.555 279.327L131.562 279.28L134.664 224.28C134.673 224.118 134.548 223.978 134.386 223.969Z" fill="#164194"/>
<path d="M126.503 222.562C126.363 222.519 126.215 222.585 126.151 222.712L126.134 222.756L114.486 260.242C114.438 260.397 114.525 260.562 114.68 260.611C114.82 260.654 114.968 260.588 115.032 260.461L115.05 260.417L126.697 222.931C126.745 222.776 126.658 222.611 126.503 222.562Z" fill="#164194"/>
<path d="M147.991 221.697C141.382 222.006 134.967 222.145 129.255 222.145L127.307 222.139C125.294 222.127 123.516 222.096 122.159 222.054L121.513 222.032C121.316 222.024 121.138 222.017 120.982 222.009L120.666 221.992C120.561 221.985 120.474 221.979 120.408 221.973L120.329 221.965L120.295 221.952C120.252 221.938 120.205 221.935 120.158 221.943L120.112 221.955L120.074 221.959C120.003 221.972 119.995 222.018 119.934 222.364L120.055 222.49C120.092 222.525 120.103 222.526 120.129 222.527C120.152 222.534 120.176 222.539 120.206 222.544L120.254 222.55C120.295 222.555 120.347 222.56 120.409 222.565L120.63 222.58C120.913 222.598 121.312 222.616 121.801 222.632L122.817 222.663C124.15 222.697 125.797 222.721 127.623 222.73L127.948 222.732C133.988 222.755 140.891 222.619 148.018 222.286C148.181 222.278 148.307 222.14 148.299 221.978C148.291 221.815 148.153 221.69 147.991 221.697Z" fill="#164194"/>
<path fill-rule="evenodd" clip-rule="evenodd" d="M155.961 192.259L149.869 176.575C148.401 172.794 150.294 168.5 154.076 167.032C157.858 165.564 162.154 167.456 163.623 171.237L169.656 186.772L155.961 192.259Z" fill="#80A1D4"/>
<path d="M132.585 168.783C132.456 168.783 132.352 168.887 132.352 169.016C132.352 169.13 132.435 169.225 132.543 169.245L132.585 169.249H145.083C145.212 169.249 145.316 169.145 145.316 169.016C145.316 168.902 145.234 168.806 145.125 168.787L145.083 168.783H132.585Z" fill="#164194"/>
<path d="M149.887 176.568C149.84 176.448 149.705 176.388 149.585 176.435C149.479 176.476 149.42 176.587 149.441 176.696L149.452 176.736L155.544 192.42C155.585 192.527 155.698 192.586 155.807 192.564L155.848 192.551L169.543 187.065C169.662 187.017 169.72 186.881 169.672 186.762C169.63 186.656 169.518 186.598 169.41 186.62L169.369 186.632L155.893 192.031L149.887 176.568Z" fill="#164194"/>
<path fill-rule="evenodd" clip-rule="evenodd" d="M135.308 218.934L123.226 185.996C123.026 185.454 122.502 185.098 121.924 185.115L91.9689 185.97C91.0384 185.996 90.4156 186.937 90.7534 187.804L103.268 219.834C103.469 220.35 103.966 220.689 104.519 220.69L134.043 220.742C134.979 220.743 135.63 219.812 135.308 218.934Z" fill="#4E5C93"/>
<path fill-rule="evenodd" clip-rule="evenodd" d="M133.712 218.594L121.84 186.23C121.599 185.572 120.965 185.143 120.264 185.163L89.9385 186.029C89.2879 186.047 88.852 186.704 89.0894 187.31L101.776 219.785C101.999 220.355 102.548 220.731 103.161 220.732L132.18 220.783C133.314 220.785 134.103 219.658 133.712 218.594Z" fill="#253368"/>
<path fill-rule="evenodd" clip-rule="evenodd" d="M117.823 188.432C117.5 188.823 117.649 189.48 118.158 189.899C118.666 190.319 119.339 190.342 119.662 189.95C119.985 189.559 119.836 188.902 119.328 188.483C118.819 188.064 118.146 188.041 117.823 188.432Z" fill="#4E5C93"/>
<path fill-rule="evenodd" clip-rule="evenodd" d="M118.241 188.809C118.073 189.012 118.151 189.353 118.415 189.571C118.678 189.789 119.029 189.801 119.196 189.598C119.363 189.395 119.286 189.053 119.022 188.836C118.759 188.618 118.409 188.606 118.241 188.809Z" fill="#FFC999"/>
<path fill-rule="evenodd" clip-rule="evenodd" d="M123.886 218.44C124.208 220.689 126.242 222.287 128.504 222.068L172.168 217.837C176.168 217.315 178.97 213.627 178.399 209.636C177.823 205.608 174.041 202.848 170.029 203.524L127.113 213.703C124.973 214.211 123.575 216.265 123.886 218.44Z" fill="#FFC999"/>
<path fill-rule="evenodd" clip-rule="evenodd" d="M123.879 223.744C123.879 223.744 133.898 222.729 135.187 218.269C136.354 214.23 132.464 212.581 132.464 212.581C132.464 212.581 128.857 210.329 124.195 209.552C121.123 209.041 115.181 208.66 114.695 210.237C114.06 212.293 120.809 212.333 120.821 213.898C120.834 215.505 119.439 215.6 116.338 216.86C114.4 217.647 113.191 217.158 111.676 218.139C108.713 220.056 112.198 225.756 123.879 223.744Z" fill="#FFC999"/>
<path d="M135.798 139.551C135.655 139.538 135.527 139.632 135.492 139.767L135.472 139.895C135.465 139.933 135.454 139.981 135.439 140.04C135.388 140.244 135.305 140.482 135.186 140.75C134.839 141.527 134.259 142.38 133.39 143.279C133.275 143.398 133.283 143.589 133.407 143.698L133.783 144.024C134.332 144.495 134.81 144.886 135.219 145.202L135.509 145.422L135.807 145.638C135.815 145.644 135.821 145.648 135.827 145.652C135.959 145.74 136.139 145.705 136.228 145.572C136.317 145.44 136.281 145.26 136.149 145.172L136.01 145.074L135.854 144.959C135.797 144.917 135.737 144.871 135.673 144.822L135.573 144.746C135.216 144.469 134.805 144.134 134.337 143.737L134.014 143.459L134.135 143.327C134.819 142.566 135.311 141.832 135.641 141.143L135.714 140.985C135.944 140.471 136.041 140.086 136.06 139.864C136.074 139.705 135.957 139.565 135.798 139.551Z" fill="#DD936F"/>
<path d="M140.638 157.045C140.584 156.895 140.419 156.816 140.269 156.869C138.351 157.547 136.443 157.737 134.601 157.468C134.443 157.445 134.297 157.554 134.274 157.712C134.25 157.87 134.36 158.017 134.518 158.04C136.453 158.322 138.455 158.123 140.462 157.414C140.612 157.361 140.691 157.196 140.638 157.045Z" fill="#DD936F"/>
<path d="M65.9282 147.232C65.8125 147.342 65.8079 147.525 65.9179 147.641L66.0518 147.785L66.2228 147.975C66.2827 148.042 66.3453 148.113 66.4102 148.188C66.7814 148.615 67.1526 149.071 67.4985 149.538C67.8411 150 68.1401 150.448 68.3826 150.87C69.2095 152.309 69.2781 153.228 68.4918 153.556C68.3445 153.617 68.2748 153.787 68.3363 153.934C68.3977 154.081 68.567 154.151 68.7143 154.089C69.959 153.57 69.8631 152.286 68.8839 150.582C68.6291 150.139 68.3181 149.673 67.963 149.194C67.6074 148.714 67.227 148.246 66.8466 147.809L66.5642 147.49L66.3368 147.243C66.2268 147.127 66.0439 147.122 65.9282 147.232Z" fill="#DD936F"/>
<path d="M64.809 150.79C64.7119 150.917 64.7359 151.098 64.8625 151.195L65.0033 151.306L65.1834 151.452C65.2465 151.504 65.3124 151.559 65.3808 151.616C65.7716 151.946 66.1624 152.299 66.5263 152.66C66.9137 153.046 67.2472 153.418 67.5102 153.768C68.2113 154.701 68.3208 155.315 67.8194 155.623C67.6105 155.751 67.3755 155.779 67.1044 155.716C66.7081 155.624 66.2605 155.342 65.8026 154.928C65.5949 154.74 65.3993 154.538 65.2223 154.336L65.0872 154.178C65.0503 154.133 65.0218 154.097 65.0024 154.072C64.9056 153.945 64.7243 153.92 64.5973 154.017C64.4703 154.113 64.4458 154.295 64.5425 154.422L64.6393 154.543C64.6804 154.593 64.73 154.651 64.7875 154.717C64.9784 154.935 65.1892 155.152 65.4148 155.356C65.9389 155.83 66.4621 156.16 66.9733 156.279C67.3851 156.375 67.7753 156.328 68.1216 156.115C69.0245 155.562 68.8515 154.59 67.9723 153.421C67.6909 153.047 67.3396 152.654 66.934 152.251C66.5578 151.877 66.1555 151.513 65.7533 151.174L65.5501 151.005L65.2143 150.737C65.0876 150.64 64.9061 150.664 64.809 150.79Z" fill="#DD936F"/>
<path d="M64.0937 153.64C63.936 153.615 63.788 153.722 63.7631 153.88C63.7382 154.038 63.8458 154.186 64.0035 154.211C64.3902 154.272 64.8843 154.621 65.4754 155.316C66.7175 156.777 66.9747 157.717 66.6053 157.933C66.2231 158.156 65.316 157.743 64.7331 156.91C64.5273 156.615 64.0761 156.886 64.2384 157.206C64.9643 158.638 65.8151 159.636 66.8731 160.412L67.137 160.599C67.58 160.907 67.7423 160.994 68.9651 161.639L69.251 161.794C70.9103 162.712 71.5802 163.518 71.9637 165.428C71.9951 165.585 72.1474 165.686 72.3039 165.655C72.4605 165.623 72.5619 165.471 72.5305 165.315C72.0975 163.158 71.2864 162.235 69.3834 161.207L68.267 160.614C67.8414 160.382 67.6921 160.283 67.3648 160.054C66.7313 159.611 66.1768 159.09 65.6794 158.439L65.66 158.412L65.7311 158.441C66.1323 158.593 66.522 158.614 66.8281 158.468L66.8972 158.432C67.7212 157.95 67.3641 156.645 65.9159 154.942C65.2438 154.151 64.6427 153.726 64.0937 153.64Z" fill="#DD936F"/>
<path d="M71.9385 150.074C71.7953 150.062 71.6679 150.157 71.6342 150.292L71.6266 150.338L71.2762 154.57L71.1677 154.761L71.0873 154.911C70.9215 155.225 70.7558 155.575 70.6012 155.952C70.152 157.046 69.8839 158.145 69.8896 159.18C69.8941 159.989 70.068 160.726 70.4364 161.372C70.5155 161.51 70.6921 161.558 70.8307 161.479C70.9694 161.4 71.0176 161.224 70.9385 161.085C70.6227 160.532 70.4716 159.892 70.4677 159.177C70.4625 158.229 70.7134 157.201 71.136 156.171C71.2538 155.884 71.3783 155.613 71.5041 155.364L71.5986 155.181C71.6925 155.003 71.7648 154.877 71.8047 154.812C71.8206 154.786 71.8322 154.758 71.8394 154.729L71.8466 154.685L72.2027 150.386C72.2159 150.227 72.0976 150.087 71.9385 150.074Z" fill="#DD936F"/>
<path d="M120.491 217.997C120.395 217.87 120.214 217.843 120.086 217.938L120.012 217.991C119.922 218.053 119.786 218.139 119.604 218.244C119.196 218.481 118.714 218.718 118.161 218.94C116.253 219.706 114.016 220.098 111.49 219.912C111.331 219.901 111.193 220.02 111.181 220.179C111.169 220.338 111.289 220.477 111.448 220.489C114.066 220.681 116.389 220.274 118.377 219.476C118.956 219.244 119.462 218.994 119.894 218.744C120.008 218.678 120.111 218.616 120.202 218.557L120.29 218.5C120.358 218.455 120.406 218.421 120.432 218.402C120.56 218.306 120.586 218.125 120.491 217.997Z" fill="#DD936F"/>
<path d="M121.972 220.513C121.905 220.369 121.733 220.307 121.588 220.374C121.444 220.442 121.298 220.506 121.151 220.569C118.932 221.505 116.613 221.79 114.66 221.709L114.436 221.698C114.307 221.69 114.218 221.683 114.174 221.679C114.016 221.662 113.873 221.777 113.857 221.936C113.84 222.095 113.956 222.237 114.115 222.253L114.279 222.267C114.316 222.269 114.357 222.272 114.403 222.275C116.482 222.393 118.977 222.113 121.376 221.101C121.53 221.036 121.682 220.968 121.833 220.898C121.978 220.83 122.04 220.658 121.972 220.513Z" fill="#DD936F"/>
<path d="M124.458 221.947C124.375 221.81 124.198 221.766 124.061 221.849L123.995 221.886C123.915 221.929 123.789 221.991 123.617 222.066C123.228 222.237 122.751 222.408 122.186 222.569C120.939 222.922 119.447 223.171 117.702 223.266C117.543 223.275 117.421 223.411 117.429 223.57C117.438 223.73 117.574 223.852 117.734 223.843C119.522 223.745 121.055 223.49 122.343 223.124C122.935 222.957 123.436 222.776 123.849 222.595C124.101 222.485 124.271 222.397 124.359 222.344C124.496 222.261 124.54 222.084 124.458 221.947Z" fill="#DD936F"/>
</g>
<defs>
<clipPath id="clip0">
<rect width="250.083" height="500" fill="white" transform="matrix(-1 0 0 1 250.083 0)"/>
</clipPath>
</defs>
</svg>
