<svg width="58" height="46" viewBox="0 0 58 46" fill="none" xmlns="http://www.w3.org/2000/svg">
<path d="M38.6667 5.75H19.3333C8.6558 5.75 0 13.4731 0 23C0 32.5269 8.6558 40.25 19.3333 40.25H38.6667C49.3442 40.25 58 32.5269 58 23C58 13.4731 49.3442 5.75 38.6667 5.75ZM6.44444 23C6.44444 16.6444 12.2091 11.5 19.3333 11.5C26.4566 11.5 32.2222 16.6435 32.2222 23C32.2222 29.3556 26.4576 34.5 19.3333 34.5C12.2101 34.5 6.44444 29.3565 6.44444 23ZM38.6667 34.5H33.7422C40.3092 27.9542 40.3111 18.0478 33.7422 11.5H38.6667C45.7899 11.5 51.5556 16.6435 51.5556 23C51.5556 29.3555 45.7909 34.5 38.6667 34.5Z" fill="#75C9C8"/>
<circle cx="19" cy="23" r="15" fill="#75C9C8"/>
</svg>
