<svg width="58" height="46" viewBox="0 0 58 46" fill="none" xmlns="http://www.w3.org/2000/svg">
<g clip-path="url(#clip0)">
<path d="M19.3333 40.25L38.6667 40.25C49.3442 40.25 58 32.5269 58 23C58 13.4731 49.3442 5.75 38.6667 5.75L19.3333 5.75C8.65579 5.75 0 13.4731 0 23C0 32.5269 8.65579 40.25 19.3333 40.25ZM51.5556 23C51.5556 29.3556 45.7909 34.5 38.6667 34.5C31.5434 34.5 25.7778 29.3565 25.7778 23C25.7778 16.6444 31.5424 11.5 38.6667 11.5C45.7899 11.5 51.5556 16.6435 51.5556 23ZM19.3333 11.5H24.2578C17.6908 18.0458 17.6889 27.9522 24.2578 34.5H19.3333C12.2101 34.5 6.44444 29.3565 6.44444 23C6.44444 16.6445 12.2091 11.5 19.3333 11.5Z" fill="#D6585C"/>
<circle cx="39" cy="23" r="15" fill="#D6585C"/>
</g>
<defs>
<clipPath id="clip0">
<rect width="58" height="46" fill="white"/>
</clipPath>
</defs>
</svg>
